<svg xmlns="http://www.w3.org/2000/svg" aria-hidden="true" overflow="hidden" style="position:absolute;width:0;height:0"><defs><symbol id="icon-flag" viewBox="0 0 32 32"><path d="m23.196 10.93 3.638-5.466a1.024 1.024 0 0 0-.289-1.495.998.998 0 0 0-.543-.138H8.966V1.803H6.962v26.366H4.958v2.028h6.013v-2.028H8.967V18.028h17.036a.998.998 0 0 0 .878-.535 1.028 1.028 0 0 0-.046-1.037l-3.638-5.527zM8.966 16V5.859h15.152l-2.956 4.452a1.023 1.023 0 0 0 0 1.126L24.168 16H8.966z"/></symbol><symbol id="icon-healthcare" viewBox="0 0 32 32"><path d="M31.063 13.65a.851.851 0 0 0-1.212 0l-8.712 8.713-2.438-2.438a.854.854 0 0 0-1.213 0 .854.854 0 0 0 0 1.213l3.044 3.044c.169.169.388.25.606.25s.438-.081.606-.25l4.519-4.519c.156.512.238 1.05.225 1.6-.056 2.869-2.444 5.15-5.313 5.1-2.869-.056-5.156-2.444-5.1-5.313a5.209 5.209 0 0 1 5.206-5.1h.106a5.155 5.155 0 0 1 2.5.7c.413.238.938.1 1.175-.313s.1-.938-.313-1.175a6.854 6.854 0 0 0-2.156-.8c.481-1.388.725-2.775.725-4.144 0-3.369-2.406-6.063-5.6-6.263-2.219-.138-4.4 1.006-5.663 2.812-1.262-1.806-3.45-2.95-5.662-2.812-2.019.125-3.75 1.231-4.763 3.031-.231.412-.081.937.331 1.169s.937.081 1.169-.331c.719-1.288 1.95-2.075 3.375-2.163 2.062-.138 4.1 1.269 4.737 3.25 0 .006.006.012.012.019a.819.819 0 0 0 .106.206c.006.006.012.019.019.025.044.063.1.119.169.162.013.013.025.019.044.031a.803.803 0 0 0 .206.106h.006a.756.756 0 0 0 .238.038c.012 0 .019.006.025.006s.019-.006.025-.006a.717.717 0 0 0 .231-.038h.006c.019-.006.037-.019.05-.025.031-.012.063-.025.088-.037s.044-.031.069-.044c.025-.019.05-.031.069-.05l.056-.056c.019-.019.044-.037.056-.063.019-.019.031-.044.05-.069s.031-.044.044-.069c.013-.025.025-.056.038-.088.006-.019.019-.038.025-.056.637-1.981 2.675-3.375 4.737-3.25 2.275.144 3.988 2.1 3.988 4.55 0 1.325-.269 2.675-.8 4.031-3.531.244-6.375 3.156-6.444 6.762-.006.325.019.65.056.969a24.09 24.09 0 0 1-2.344 1.488c-5.988-3.388-9.55-8.313-9.55-13.25 0-.475-.381-.856-.856-.856s-.856.381-.856.856c0 5.681 4.044 11.275 10.825 14.975h.006c.006.006.013.006.019.012.038.019.081.031.119.044.025.006.05.025.075.031.069.019.144.031.219.031s.144-.013.219-.031c.025-.006.05-.019.075-.031.037-.012.081-.025.119-.044a27.49 27.49 0 0 0 2.394-1.45c1.012 2.481 3.425 4.262 6.275 4.319h.144c3.75 0 6.844-3.012 6.919-6.781a6.847 6.847 0 0 0-.606-2.962l3.469-3.469c.319-.319.319-.863-.013-1.2z"/></symbol><symbol id="icon-manager" viewBox="0 0 32 32"><path d="M22 18h-2.667a.665.665 0 0 1-.666-.666v-2.053a5.335 5.335 0 0 0 2.667-4.614v-4a5.332 5.332 0 1 0-10.666 0v4a5.337 5.337 0 0 0 2.667 4.614v2.053a.665.665 0 0 1-.666.666h-2.667a3.333 3.333 0 0 0-3.333 3.333V30a.665.665 0 0 0 .666.666h17.333a.665.665 0 0 0 .666-.666v-8.667A3.333 3.333 0 0 0 22.001 18zM20 6.42a2.659 2.659 0 0 1-3.886.132 2.657 2.657 0 0 1 .132-3.886 3.994 3.994 0 0 1 3.753 3.753zm-5.647-3.393A4 4 0 0 0 14 4.667c.001.305.037.609.107.907a2.759 2.759 0 0 1-2.033.353 3.997 3.997 0 0 1 2.28-2.9zM12 10.667V7.274c.22.037.443.057.667.06a3.998 3.998 0 0 0 1.96-.52 3.998 3.998 0 0 0 5.374 1.333v2.52a4.003 4.003 0 0 1-4 4 4.001 4.001 0 0 1-4-4zM16 16c.45-.003.898-.061 1.333-.173v1.507a2.001 2.001 0 0 0 .8 1.594L16 21.061l-2.133-2.133a2.012 2.012 0 0 0 .8-1.594v-1.507c.436.112.883.17 1.333.173zm-8 5.333a2 2 0 0 1 2-2h2.393l2.94 2.94v7.06H12V26h-1.333v3.333H8v-8zm16 8h-2.667V26H20v3.333h-3.333v-7.06l2.94-2.94H22a2 2 0 0 1 2 2v8z"/></symbol></defs></svg>