<svg width="73" height="73" viewBox="0 0 73 73" fill="none" xmlns="http://www.w3.org/2000/svg">
<path d="M50.1875 41.0625H44.1041C43.7008 41.0625 43.314 40.9023 43.0288 40.6171C42.7435 40.3319 42.5833 39.945 42.5833 39.5417V34.8575C44.431 33.7907 45.9658 32.2568 47.0335 30.4096C48.1012 28.5624 48.6645 26.4669 48.6666 24.3334V15.2084C48.6666 11.9816 47.3848 8.88691 45.1031 6.60522C42.8214 4.32353 39.7268 3.04169 36.5 3.04169C33.2732 3.04169 30.1785 4.32353 27.8968 6.60522C25.6152 8.88691 24.3333 11.9816 24.3333 15.2084V24.3334C24.3355 26.4669 24.8987 28.5624 25.9665 30.4096C27.0342 32.2568 28.5689 33.7907 30.4166 34.8575V39.5417C30.4166 39.945 30.2564 40.3319 29.9712 40.6171C29.686 40.9023 29.2992 41.0625 28.8958 41.0625H22.8125C20.7957 41.0625 18.8616 41.8637 17.4355 43.2897C16.0095 44.7158 15.2083 46.6499 15.2083 48.6667V68.4375C15.2083 68.8409 15.3685 69.2277 15.6538 69.5129C15.939 69.7981 16.3258 69.9584 16.7291 69.9584H56.2708C56.6742 69.9584 57.061 69.7981 57.3462 69.5129C57.6314 69.2277 57.7916 68.8409 57.7916 68.4375V48.6667C57.7916 46.6499 56.9905 44.7158 55.5644 43.2897C54.1384 41.8637 52.2042 41.0625 50.1875 41.0625ZM45.625 14.6456C45.0563 15.2973 44.3552 15.8202 43.5685 16.1795C42.7817 16.5388 41.9274 16.7262 41.0625 16.7292C39.4491 16.7292 37.9018 16.0883 36.7609 14.9474C35.6201 13.8066 34.9791 12.2593 34.9791 10.6459C34.9821 9.78095 35.1695 8.92663 35.5288 8.13987C35.8881 7.35312 36.411 6.65203 37.0627 6.08335C39.2899 6.21694 41.391 7.16192 42.9687 8.73963C44.5464 10.3173 45.4914 12.4184 45.625 14.6456ZM32.7435 6.9046C32.2134 8.08069 31.9387 9.35581 31.9375 10.6459C31.9407 11.3422 32.0223 12.0361 32.1808 12.7142C30.797 13.5726 29.1345 13.8615 27.5423 13.5202C27.8146 12.081 28.4294 10.7285 29.3347 9.57702C30.24 8.42554 31.4092 7.50891 32.7435 6.9046ZM27.375 24.3334V16.5923C27.8777 16.6763 28.3861 16.722 28.8958 16.7292C30.4634 16.7244 32.0033 16.3158 33.3671 15.5429C34.6237 17.5328 36.6006 18.9603 38.8848 19.5271C41.169 20.0939 43.5839 19.7562 45.625 18.5846V24.3334C45.625 26.7535 44.6636 29.0744 42.9523 30.7857C41.2411 32.497 38.9201 33.4584 36.5 33.4584C34.0799 33.4584 31.7589 32.497 30.0476 30.7857C28.3364 29.0744 27.375 26.7535 27.375 24.3334ZM36.5 36.5C37.5262 36.4933 38.5478 36.3605 39.5416 36.1046V39.5417C39.544 40.2474 39.71 40.943 40.0267 41.5737C40.3434 42.2044 40.8021 42.753 41.3666 43.1765L36.5 48.0431L31.6333 43.1765C32.1979 42.753 32.6566 42.2044 32.9732 41.5737C33.2899 40.943 33.456 40.2474 33.4583 39.5417V36.1046C34.4522 36.3605 35.4737 36.4933 36.5 36.5ZM18.25 48.6667C18.25 47.4566 18.7307 46.2961 19.5863 45.4405C20.4419 44.5849 21.6024 44.1042 22.8125 44.1042H28.2723L34.9791 50.8111V66.9167H27.375V59.3125H24.3333V66.9167H18.25V48.6667ZM54.75 66.9167H48.6666V59.3125H45.625V66.9167H38.0208V50.8111L44.7277 44.1042H50.1875C51.3975 44.1042 52.558 44.5849 53.4137 45.4405C54.2693 46.2961 54.75 47.4566 54.75 48.6667V66.9167Z" fill="#05581C"/>
</svg>
