<svg xmlns="http://www.w3.org/2000/svg" aria-hidden="true" overflow="hidden" style="position:absolute;width:0;height:0"><defs><symbol id="icon-clock" viewBox="0 0 32 32"><path d="M30.667 16c0 8.1-6.567 14.667-14.667 14.667S1.333 24.1 1.333 16 7.899 1.333 16 1.333 30.667 7.899 30.667 16zM4.009 16c0 6.622 5.368 11.991 11.991 11.991S27.991 22.622 27.991 16 22.622 4.009 16 4.009 4.009 9.377 4.009 16z"/><path d="M16 6.667c-.736 0-1.333.597-1.333 1.333v8.622s0 .348.169.609c.113.222.289.414.521.548l6.16 3.556a1.333 1.333 0 1 0 1.333-2.309l-5.516-3.185V7.999c0-.736-.597-1.333-1.333-1.333z"/></symbol><symbol id="icon-mail" viewBox="0 0 31 32"><path stroke-linecap="round" stroke-linejoin="round" stroke-width="1.92" d="M3.84 11.928v12.48a.96.96 0 0 0 .96.96h21.12a.96.96 0 0 0 .96-.96v-12.48l-11.52-7.68-11.52 7.68z"/><path stroke-linecap="round" stroke-linejoin="round" stroke-width="1.92" d="m26.88 11.928-9.425 6.72h-4.189l-9.425-6.72"/></symbol><symbol id="icon-map-pin" viewBox="0 0 31 32"><path stroke-linecap="round" stroke-linejoin="round" stroke-width="1.92" d="M15.36 17.218a3.84 3.84 0 1 0 0-7.68 3.84 3.84 0 0 0 0 7.68z"/><path stroke-linecap="round" stroke-linejoin="round" stroke-width="1.92" d="M24.96 13.378c0 8.64-9.6 15.36-9.6 15.36s-9.6-6.72-9.6-15.36A9.602 9.602 0 0 1 22.148 6.59a9.602 9.602 0 0 1 2.812 6.788z"/></symbol><symbol id="icon-phone" viewBox="0 0 31 32"><path stroke-linecap="round" stroke-linejoin="round" stroke-width="1.92" d="M11.097 15.624a10.12 10.12 0 0 0 4.686 4.665.952.952 0 0 0 .939-.071l3.004-2.003a.95.95 0 0 1 .911-.083l5.62 2.409a.955.955 0 0 1 .576.996 5.763 5.763 0 0 1-5.715 5.031 16.32 16.32 0 0 1-16.32-16.32 5.763 5.763 0 0 1 5.031-5.715.956.956 0 0 1 .996.576l2.411 5.625a.963.963 0 0 1-.079.904l-1.996 3.05a.947.947 0 0 0-.065.937z"/></symbol><symbol id="icon-phone-arrow" viewBox="0 0 32 32"><path stroke-linecap="round" stroke-linejoin="round" stroke-width="2.667" d="M30.4 8V1.6m0 0H24m6.4 0-9.6 9.6m5.6 19.2C12.703 30.4 1.6 19.297 1.6 5.6c0-.618.023-1.231.067-1.837.051-.696.076-1.044.259-1.361.151-.262.419-.511.692-.643C2.947 1.6 3.331 1.6 4.1 1.6h4.508c.646 0 .969 0 1.246.106.245.094.462.246.634.444.195.224.305.527.526 1.135l1.866 5.131c.257.706.385 1.06.364 1.395-.019.295-.12.58-.291.821-.194.274-.516.467-1.161.854L9.602 12.8a19.36 19.36 0 0 0 9.6 9.6l1.314-2.19c.387-.645.58-.967.854-1.161.242-.171.526-.272.821-.291.335-.022.688.107 1.395.364l5.131 1.866c.607.221.911.331 1.134.526.198.172.351.39.444.634.106.277.106.6.106 1.246v4.508c0 .768 0 1.152-.159 1.482-.132.273-.38.541-.643.692-.317.182-.665.208-1.361.259-.607.044-1.219.067-1.837.067z"/></symbol><symbol id="icon-truck" viewBox="0 0 33 32"><path stroke-linecap="round" stroke-linejoin="round" stroke-width="1.164" d="M22.4 10h5.422c.203-.001.401.058.569.169s.298.27.372.456L30.545 15M2.036 18H22.4"/><path stroke-miterlimit="10" stroke-width="1.164" d="M23.927 27c1.687 0 3.055-1.343 3.055-3s-1.368-3-3.055-3-3.055 1.343-3.055 3 1.368 3 3.055 3zM8.655 27c1.687 0 3.055-1.343 3.055-3s-1.368-3-3.055-3S5.6 22.343 5.6 24s1.368 3 3.055 3z"/><path stroke-linecap="round" stroke-linejoin="round" stroke-width="1.164" d="M20.873 24h-9.164M5.6 24H3.055c-.27 0-.529-.105-.72-.293s-.298-.442-.298-.707V9c0-.265.107-.52.298-.707S2.785 8 3.055 8H22.4v13.4M22.4 15h8.145v8c0 .265-.107.52-.298.707s-.45.293-.72.293h-2.545"/></symbol><symbol id="icon-burger" viewBox="0 0 32 32"><path stroke-linecap="round" stroke-linejoin="round" stroke-width="1.143" d="M6.1 12a.993.993 0 0 1-.777-.374 1.002 1.002 0 0 1-.198-.839C5.925 6.937 10.488 4 16 4s10.075 2.938 10.875 6.787A.999.999 0 0 1 25.9 12H6.1zM26 21v2a4.003 4.003 0 0 1-4 4H10a4.003 4.003 0 0 1-4-4v-2"/><path stroke-linecap="round" stroke-linejoin="round" stroke-width="1.143" d="m3.5 22 5-2 5 2 5-2 5 2 5-2M3 16h26"/></symbol><symbol id="icon-care" viewBox="0 0 32 32"><path d="m22.698 9.284-.586.586-.586-.586a2.208 2.208 0 0 0-3.738 1.572 2.208 2.208 0 0 0 .614 1.552l2.974 2.815a1.04 1.04 0 0 0 1.474 0l2.974-2.815a2.208 2.208 0 0 0-1.572-3.738 2.208 2.208 0 0 0-1.552.614zm-16.969-.15 2.825.132.132-2.825a1.189 1.189 0 0 0-1.135-1.224c-.312-.015-.617.094-.849.302s-.374.499-.395.81l-.021.446-.446-.02A1.195 1.195 0 0 0 4.635 7.89a1.194 1.194 0 0 0 1.094 1.244zm23.529 5.769-.344.016-.016-.344a.914.914 0 0 0-.604-.825.916.916 0 0 0-1.178.556.917.917 0 0 0-.052.356l.101 2.178 2.177-.101a.918.918 0 0 0-.085-1.833zM9.594 3.654a.625.625 0 1 0 0-1.25.625.625 0 0 0 0 1.25zM26.468 5.529a.625.625 0 1 0 0-1.25.625.625 0 0 0 0 1.25zM20.218 19.279a.625.625 0 1 0 0-1.25.625.625 0 0 0 0 1.25zM3.344 5.515a.625.625 0 1 0 0-1.25.625.625 0 0 0 0 1.25zM8.969 12.39a.625.625 0 1 0 0-1.25.625.625 0 0 0 0 1.25z"/><path d="m11.922 10.954 4.588 4.344a1.903 1.903 0 0 0 1.355.558c.491 0 .981-.186 1.355-.558l.662-.627-1.923-1.821c-.535-.536-.83-1.247-.83-2.004s.295-1.469.83-2.004c.535-.536 1.247-.83 2.004-.83s1.468.294 2.004.83l.144.144.144-.144a2.83 2.83 0 0 1 2.643-.757 3.71 3.71 0 0 0-1.083-2.404 3.728 3.728 0 0 0-5.266 0l-.683.683-.683-.684a3.728 3.728 0 0 0-6.075 1.207 3.692 3.692 0 0 0-.281 1.426c0 .995.387 1.93 1.091 2.633l.005.006zM1.781 28.966h5V15.841h-5v13.125zm2.813-2.812a.625.625 0 1 1 0 1.25.625.625 0 0 1 0-1.25zm23.156-6.437-11.822 3.328a.301.301 0 0 1-.085.012h-5.625a.312.312 0 0 1-.313-.313.312.312 0 0 1 .313-.313h5c.862 0 1.563-.701 1.563-1.563s-.701-1.563-1.563-1.563h-3.75a.31.31 0 0 1-.221-.092l-1.784-1.784H7.405v10h1.563a.31.31 0 0 1 .152.04l2.379 1.321a6.302 6.302 0 0 0 6.183-.01l.008-.004 11.323-5.944a1.688 1.688 0 0 0 .878-1.72 1.695 1.695 0 0 0-1.056-1.344 1.69 1.69 0 0 0-1.085-.053z"/></symbol><symbol id="icon-cooking" viewBox="0 0 32 32"><path d="M30.045 21.61a5.89 5.89 0 0 1-5.25.754.519.519 0 0 0-.478.067l-2.349 1.672.605.854 2.132-1.519a6.958 6.958 0 0 0 5.923-.96c.308-.209.599-.44.872-.693l-.708-.77a6.288 6.288 0 0 1-.747.595z"/><path d="M24.788 13.792c-.747.479-1.346 1.158-1.728 1.961s-.532 1.697-.434 2.581l-6.618 4.257-6.619-4.254a4.75 4.75 0 0 0-2.164-4.542 4.982 4.982 0 0 0-3.404-.852 3.858 3.858 0 0 0-2.826 1.69 3.885 3.885 0 0 0-.503 3.263 5.002 5.002 0 0 0 2.063 2.845 4.711 4.711 0 0 0 5.011.311l5.138 3.66-4.889 3.146a2.052 2.052 0 0 0-.91 2.132 2.056 2.056 0 0 0 2.458 1.608 2.04 2.04 0 0 0 .741-.331l5.906-4.202 5.906 4.205a2.041 2.041 0 0 0 2.328.065 2.048 2.048 0 0 0 .898-1.338 2.073 2.073 0 0 0-.338-1.577 2.058 2.058 0 0 0-.597-.564l-4.895-3.143 5.141-3.662a4.711 4.711 0 0 0 5.012-.309c2.146-1.453 2.846-4.195 1.56-6.112s-4.085-2.292-6.235-.839zM9.497 30.414a1.03 1.03 0 0 1-1.416-.26 1.01 1.01 0 0 1 .293-1.414l5.246-3.376 1.482 1.055-5.605 3.994zm14.587-1.028a1.004 1.004 0 0 1-1.569 1.03L7.877 19.992a.523.523 0 0 0-.61.004 3.606 3.606 0 0 1-4.13-.122A3.96 3.96 0 0 1 1.5 17.627a2.84 2.84 0 0 1 .36-2.41 2.811 2.811 0 0 1 2.094-1.235 3.938 3.938 0 0 1 2.69.681c.629.388 1.125.959 1.421 1.638s.378 1.432.236 2.159a.519.519 0 0 0 .225.569l15.116 9.713a1 1 0 0 1 .443.646zm4.792-9.514a3.604 3.604 0 0 1-4.13.121.52.52 0 0 0-.61-.004l-5.776 4.114-1.385-.89 6.512-4.191a.52.52 0 0 0 .224-.568c-.14-.727-.056-1.479.24-2.157s.791-1.25 1.419-1.639c1.671-1.13 3.818-.881 4.784.554s.391 3.531-1.28 4.661zM6.05 1.293 5.472.42c-1.261.838-2.207 2.076-2.687 3.515s-.467 2.999.037 4.43l.984-.35c-.426-1.211-.437-2.531-.03-3.749s1.207-2.265 2.275-2.974H6.05zM4.913 9.903a5.837 5.837 0 0 1-.665-.926l-.904.524c.225.39.489.757.786 1.095l.783-.693z"/><path d="m21.74 18.248 1.486-7.456c1.208-.106 2.329-.676 3.128-1.592a4.723 4.723 0 0 0-.299-6.523 4.693 4.693 0 0 0-3.261-1.297 4.628 4.628 0 0 0-2.907 1.014 4.696 4.696 0 0 0-3.88-2.061 4.681 4.681 0 0 0-3.88 2.061A4.634 4.634 0 0 0 9.22 1.38c-1.209 0-2.371.467-3.245 1.305a4.725 4.725 0 0 0-.299 6.506 4.695 4.695 0 0 0 3.112 1.599l1.486 7.458 1.023-.205-.292-1.471h10.003l-.292 1.467 1.023.21zm-2.52-2.724.437-3.069-1.034-.149-.458 3.217h-1.636V9.761h-1.044v5.762h-1.636l-.458-3.217-1.034.149.437 3.069h-1.998l-1.065-5.343a.524.524 0 0 0-.511-.419c-.969 0-1.899-.386-2.584-1.074a3.674 3.674 0 0 1 0-5.186 3.646 3.646 0 0 1 4.031-.775c.457.199.868.489 1.207.854a.523.523 0 0 0 .85-.131 3.647 3.647 0 0 1 5.224-1.508 3.666 3.666 0 0 1 1.346 1.508.514.514 0 0 0 .64.267.513.513 0 0 0 .21-.136 3.6 3.6 0 0 1 2.654-1.153c.969 0 1.899.386 2.584 1.074a3.674 3.674 0 0 1 0 5.186 3.646 3.646 0 0 1-2.584 1.074.523.523 0 0 0-.511.419l-1.065 5.343h-1.998z"/></symbol><symbol id="icon-cutlery" viewBox="0 0 32 32"><path d="m23.787 12.793 1.88-.12.01-.001a4.425 4.425 0 0 0 3.3-1.937l1.486-2.193a8.888 8.888 0 0 0 1.411-6.493 1.987 1.987 0 0 0-1.862-1.66 8.77 8.77 0 0 0-6.24 2.187l-1.987 1.747a4.466 4.466 0 0 0-1.517 3.527v.01l.107 1.891a2.671 2.671 0 0 1-.736 1.995L4.117 27.782c-.416.436-.63 1.034-.604 1.684.029.715.355 1.418.873 1.88a2.67 2.67 0 0 0 1.96.647c.645-.052 1.209-.338 1.592-.808l13.967-17.416a2.64 2.64 0 0 1 1.882-.975zm-2.628.368L7.194 30.575c-.213.262-.542.424-.924.454-.455.037-.921-.116-1.248-.407s-.533-.739-.551-1.197c-.016-.385.104-.732.335-.974l15.521-16.035a3.64 3.64 0 0 0 1.005-2.721l-.107-1.886a3.502 3.502 0 0 1 1.19-2.761l1.987-1.747a7.822 7.822 0 0 1 5.564-1.95 1.025 1.025 0 0 1 .963.859 7.927 7.927 0 0 1-1.258 5.788l-1.486 2.193a3.47 3.47 0 0 1-2.583 1.519l-1.875.119a3.61 3.61 0 0 0-2.567 1.331z"/><path d="m31.114 27.66-10.407-9.533c-.196-.179-.499-.165-.678.032s-.164.502.032.682l10.405 9.531c.248.23.388.569.395.955.009.459-.17.918-.479 1.228s-.764.491-1.221.481c-.383-.008-.72-.149-.947-.395L18.94 20.402c-.179-.197-.482-.211-.678-.032s-.21.485-.031.682l9.276 10.242c.408.443.988.695 1.635.708h.05c.695 0 1.39-.284 1.868-.764.49-.493.774-1.214.76-1.929-.013-.65-.262-1.234-.706-1.647zM5.788 12.702a4.425 4.425 0 0 0 2.904 1.181h.01l1.884.006a2.64 2.64 0 0 1 1.936.859l.83.916a.476.476 0 0 0 .678.032.485.485 0 0 0 .032-.682l-.831-.917a3.603 3.603 0 0 0-2.64-1.173l-1.879-.006a3.471 3.471 0 0 1-2.251-.906L1.002 5.486a.166.166 0 0 1 .244-.225l4.969 4.998a1.257 1.257 0 0 0 1.782 0l1.621-1.63.584-.587a1.274 1.274 0 0 0 0-1.792L5.233 1.253a.168.168 0 0 1 0-.235.164.164 0 0 1 .224-.01l6.49 5.49c.56.622.88 1.424.901 2.264l.006 1.889a3.638 3.638 0 0 0 1.167 2.656l.889.814c.196.179.499.165.678-.032s.164-.502-.032-.682l-.888-.813a2.667 2.667 0 0 1-.855-1.948l-.006-1.894v-.01a4.485 4.485 0 0 0-1.174-2.921.437.437 0 0 0-.044-.042L6.075.269a1.114 1.114 0 0 0-1.52.066 1.137 1.137 0 0 0 0 1.6l4.969 4.998a.304.304 0 0 1 0 .427l-.245.246-5.538-5.569c-.187-.189-.491-.189-.678 0s-.187.494 0 .682l5.538 5.57-.359.361-5.538-5.569c-.187-.188-.491-.188-.678 0s-.188.494 0 .682l5.538 5.57-.245.246a.3.3 0 0 1-.425 0L1.925 4.582c-.212-.214-.495-.331-.795-.331s-.583.118-.795.331A1.129 1.129 0 0 0 .27 6.11l5.48 6.55c.013.016.027.03.042.044z"/></symbol><symbol id="icon-delivery" viewBox="0 0 32 32"><path d="M26.001 1c-.668-.001-.668 1.001 0 1h.5v1.035A4 4 0 0 0 23.001 7a4 4 0 0 0 8 0 4 4 0 0 0-3.5-3.964V2h.5c.668.001.668-1.001 0-1h-2zm-8.002 3.5c-.668-.001-.668 1.001 0 1h3.5c.668.001.668-1.001 0-1h-3.5zm8.624.993a1.528 1.528 0 0 0 .529 3.001A1.532 1.532 0 0 0 28.55 6.97c.015-.661.979-.671 1.001 0a2.532 2.532 0 0 1-5.024.44 2.533 2.533 0 0 1 1.838-2.883.46.46 0 0 1 .133-.019c.578.017.692.814.125.986zm2.034.259-1.258 1.554c-.419.52-1.199-.112-.777-.63l1.258-1.553a.484.484 0 0 1 .357-.194c.376-.017.736.434.42.823zm-9.658.748c-.668-.001-.668 1.001 0 1h2.5c.668.001.668-1.001 0-1h-2.5zm1.5 2c-.668-.001-.668 1.001 0 1h1c.668.001.668-1.001 0-1h-1zM7.024 16.504V10.5H3.001a1.51 1.51 0 0 0-1.503 1.499V26a.5.5 0 0 0-.498.5v1.001c0 .277.223.5.5.5L2.997 28c0-2.199 1.809-4.003 4.005-4.003s4.001 1.805 4.001 4.003H21.5c0-2.199 1.809-4.003 4.005-4.003s4.001 1.805 4.001 4.003l.994.001c.277 0 .5-.223.5-.5V26.5c0-.277-.223-.5-.5-.5H30v-2.999h-1c-.667 0-.661-.91 0-1h1v-1c0-.178-.07-.257-.128-.353l-4.316-7.188c-.253-.518-.558-.461-1.056-.461h-4.501V26h-1V11.999c0-.822-.676-1.499-1.498-1.499h-3.498v6.002c.001.692-.731 1.189-1.373.931l-2.13-.853-2.103.847c-.641.259-1.371-.232-1.375-.923zm5.98-6.004H8.025v5.998l2.288-.922a.501.501 0 0 1 .373 0l2.316.926.002-6.002zm9.416 4.002h1.937a.916.916 0 0 1 .797.457l2.813 4.646a.924.924 0 0 1-.801 1.394h-4.739a.924.924 0 0 1-.926-.923v-4.651c0-.507.413-.923.92-.923zm.08.997v4.499h4.536l-2.724-4.499h-1.813zm-10 6.001c.25 0 .501.167.5.501V24c.001.668-1.001.668-1 0v-1.999c-.001-.334.25-.501.5-.501zm2 0c.25 0 .501.167.5.501V24c.001.668-1.001.668-1 0v-1.999c-.001-.334.25-.501.5-.501zm2 0c.25 0 .501.167.5.501V24c.001.668-1.001.668-1 0v-1.999c-.001-.334.25-.501.5-.501zm5.001.501h.5c.668-.001.668 1.001 0 1h-.5c-.668.001-.668-1.001 0-1zM7.002 24.999c-1.652 0-3.004 1.347-3.004 3S5.35 31 7.002 31s3-1.348 3-3.001-1.348-3-3-3zm18.502 0c-1.652 0-3.004 1.347-3.004 3S23.851 31 25.504 31s3-1.348 3-3.001-1.348-3-3-3zM7.002 26.5c.823 0 1.498.675 1.498 1.498s-.675 1.503-1.498 1.503-1.503-.679-1.503-1.503.68-1.498 1.503-1.498zm18.503 0c.823 0 1.498.675 1.498 1.498s-.675 1.503-1.498 1.503-1.503-.679-1.503-1.503.68-1.498 1.503-1.498zm-18.503 1a.5.5 0 1 0-.003 1 .5.5 0 0 0 .003-1zm18.503 0a.5.5 0 1 0-.003 1 .5.5 0 0 0 .003-1z"/></symbol><symbol id="icon-hat" viewBox="0 0 32 32"><path d="M17.886 25.328c-4.965.892-8.785 2.764-8.528 4.184s4.485 1.847 9.455.955c4.965-.892 8.785-2.764 8.528-4.184s-4.49-1.847-9.455-.955z"/><path d="M22.895 1.324C13.101-.228 3.792 5.775 3.792 5.775s-6.735 5.469-.979 9.959c3.515 2.739 4.897 4.659 5.445 5.741 2.279-1.479 7.045-3.913 13.261-3.467.267.019.47.252.451.519s-.257.465-.519.451c-6.07-.436-10.764 2.07-12.848 3.442a.67.67 0 0 1 .01.092l.553 5.217c1.707-1.702 5.799-2.865 8.548-3.355 1.75-.315 3.486-.485 5.018-.485 1.508 0 3.229.16 4.359.756l-.761-5.076s1.261-4.732 3.302-7.263 1.838-4.655 1.838-4.655 1.227-4.776-8.572-6.327zM8.679 19.292a12.802 12.802 0 0 0-.703-1.076 27.613 27.613 0 0 0-1.581-1.998c-.548-.485-1.091-.979-1.571-1.532a15.013 15.013 0 0 1-1.367-1.76 12.515 12.515 0 0 1-1.052-1.964c-.286-.684-.524-1.392-.616-2.124.276.679.621 1.319.989 1.939.373.616.776 1.207 1.202 1.784.223.281.436.567.674.834.223.281.461.548.703.81.238.267.499.514.742.776l.776.742.039.039c.548.703 1.042 1.43 1.469 2.206.213.388.402.79.553 1.207.15.412.271.858.242 1.304-.082-.436-.291-.815-.499-1.188zm2.051.281c.034-.155 0-.31-.034-.456a3.453 3.453 0 0 0-.136-.441 9.71 9.71 0 0 0-.373-.844 20.73 20.73 0 0 0-.912-1.615c-.645-1.057-1.358-2.07-2.007-3.166a21.944 21.944 0 0 1-1.629-3.428c-.431-1.188-.781-2.419-.863-3.685.378 1.198.868 2.342 1.387 3.467a39.126 39.126 0 0 0 1.736 3.278c.616 1.062 1.324 2.119 1.881 3.258.281.567.543 1.149.742 1.755.097.305.189.611.242.926.039.31.092.65-.034.95zm2.657-1.129c-.082-.621-.281-1.212-.47-1.804a45.225 45.225 0 0 0-.63-1.755c-.441-1.159-.936-2.303-1.358-3.496a37.743 37.743 0 0 1-1.067-3.617c-.296-1.222-.543-2.458-.679-3.709.427 1.183.824 2.371 1.222 3.554.402 1.178.79 2.366 1.212 3.535.402 1.168.873 2.337 1.212 3.559.175.606.325 1.222.436 1.847.092.616.199 1.251.121 1.886zm2.938-1.28c-.233-1.261-.383-2.526-.499-3.796s-.189-2.545-.213-3.825c-.015-1.304.121-2.545.049-3.792-.044-.621-.097-1.241-.262-1.833a3.562 3.562 0 0 0-.335-.853c-.155-.257-.354-.519-.655-.63.325.039.606.267.819.514.213.257.373.553.509.853.257.611.398 1.256.49 1.901.087.645.121 1.295.121 1.939-.005.655-.024 1.261-.005 1.901l.053 3.806a66.874 66.874 0 0 1-.073 3.816zm4.994-7.448-.296.955-.272.936c-.184.625-.339 1.261-.499 1.891-.286 1.27-.611 2.545-.543 3.864-.204-.635-.223-1.319-.213-1.988.024-.669.097-1.333.199-1.988a24.33 24.33 0 0 1 .65-2.929l.272-.936c.354-1.246.606-2.511.65-3.792 0-.635-.029-1.275-.189-1.896-.16-.611-.412-1.227-.882-1.692.577.344.955.96 1.222 1.581.257.64.373 1.319.422 1.998.073 1.358-.17 2.705-.519 3.995zm1.959 5.62a21.844 21.844 0 0 0-.669 2.027c.102-1.43.461-2.841.921-4.199.456-1.367 1.042-2.681 1.697-3.961.344-.64.674-1.251.95-1.876.121-.32.276-.63.354-.96.044-.165.102-.325.136-.49l.087-.499c.078-.664.034-1.348-.238-1.968-.257-.625-.761-1.149-1.377-1.508.344.102.669.281.955.514.291.223.538.514.737.829.388.65.529 1.43.485 2.182l-.053.562c-.024.184-.082.364-.121.543-.068.369-.218.708-.335 1.057-.276.684-.621 1.333-.941 1.949a52.64 52.64 0 0 0-1.808 3.83 39.3 39.3 0 0 0-.781 1.969zm5.987-4.088c-3.389 5.217-3.389 7.19-3.389 7.19s-.039-3.156 2.41-6.992c0 0-2.696 1.43-3.51 6.448 0 0-.592-3.316 3.937-8.373 1.256-1.401 1.668-3.413.912-5.135-.048-.107-.097-.218-.155-.33 0 0 3.181 1.973-.204 7.19z"/></symbol><symbol id="icon-flag" viewBox="0 0 32 32"><path d="m23.196 10.93 3.638-5.466a1.024 1.024 0 0 0-.289-1.495.998.998 0 0 0-.543-.138H8.966V1.803H6.962v26.366H4.958v2.028h6.013v-2.028H8.967V18.028h17.036a.998.998 0 0 0 .878-.535 1.028 1.028 0 0 0-.046-1.037l-3.638-5.527zM8.966 16V5.859h15.152l-2.956 4.452a1.023 1.023 0 0 0 0 1.126L24.168 16H8.966z"/></symbol><symbol id="icon-healthcare" viewBox="0 0 32 32"><path d="M31.063 13.65a.851.851 0 0 0-1.212 0l-8.712 8.713-2.438-2.438a.854.854 0 0 0-1.213 0 .854.854 0 0 0 0 1.213l3.044 3.044c.169.169.388.25.606.25s.438-.081.606-.25l4.519-4.519c.156.512.238 1.05.225 1.6-.056 2.869-2.444 5.15-5.313 5.1-2.869-.056-5.156-2.444-5.1-5.313a5.209 5.209 0 0 1 5.206-5.1h.106a5.155 5.155 0 0 1 2.5.7c.413.238.938.1 1.175-.313s.1-.938-.313-1.175a6.854 6.854 0 0 0-2.156-.8c.481-1.388.725-2.775.725-4.144 0-3.369-2.406-6.063-5.6-6.263-2.219-.138-4.4 1.006-5.663 2.812-1.262-1.806-3.45-2.95-5.662-2.812-2.019.125-3.75 1.231-4.763 3.031-.231.412-.081.937.331 1.169s.937.081 1.169-.331c.719-1.288 1.95-2.075 3.375-2.163 2.062-.138 4.1 1.269 4.737 3.25 0 .006.006.012.012.019a.819.819 0 0 0 .106.206c.006.006.012.019.019.025.044.063.1.119.169.162.013.013.025.019.044.031a.803.803 0 0 0 .206.106h.006a.756.756 0 0 0 .238.038c.012 0 .019.006.025.006s.019-.006.025-.006a.717.717 0 0 0 .231-.038h.006c.019-.006.037-.019.05-.025.031-.012.063-.025.088-.037s.044-.031.069-.044c.025-.019.05-.031.069-.05l.056-.056c.019-.019.044-.037.056-.063.019-.019.031-.044.05-.069s.031-.044.044-.069c.013-.025.025-.056.038-.088.006-.019.019-.038.025-.056.637-1.981 2.675-3.375 4.737-3.25 2.275.144 3.988 2.1 3.988 4.55 0 1.325-.269 2.675-.8 4.031-3.531.244-6.375 3.156-6.444 6.762-.006.325.019.65.056.969a24.09 24.09 0 0 1-2.344 1.488c-5.988-3.388-9.55-8.313-9.55-13.25 0-.475-.381-.856-.856-.856s-.856.381-.856.856c0 5.681 4.044 11.275 10.825 14.975h.006c.006.006.013.006.019.012.038.019.081.031.119.044.025.006.05.025.075.031.069.019.144.031.219.031s.144-.013.219-.031c.025-.006.05-.019.075-.031.037-.012.081-.025.119-.044a27.49 27.49 0 0 0 2.394-1.45c1.012 2.481 3.425 4.262 6.275 4.319h.144c3.75 0 6.844-3.012 6.919-6.781a6.847 6.847 0 0 0-.606-2.962l3.469-3.469c.319-.319.319-.863-.013-1.2z"/></symbol><symbol id="icon-manager" viewBox="0 0 32 32"><path d="M22 18h-2.667a.665.665 0 0 1-.666-.666v-2.053a5.335 5.335 0 0 0 2.667-4.614v-4a5.332 5.332 0 1 0-10.666 0v4a5.337 5.337 0 0 0 2.667 4.614v2.053a.665.665 0 0 1-.666.666h-2.667a3.333 3.333 0 0 0-3.333 3.333V30a.665.665 0 0 0 .666.666h17.333a.665.665 0 0 0 .666-.666v-8.667A3.333 3.333 0 0 0 22.001 18zM20 6.42a2.659 2.659 0 0 1-3.886.132 2.657 2.657 0 0 1 .132-3.886 3.994 3.994 0 0 1 3.753 3.753zm-5.647-3.393A4 4 0 0 0 14 4.667c.001.305.037.609.107.907a2.759 2.759 0 0 1-2.033.353 3.997 3.997 0 0 1 2.28-2.9zM12 10.667V7.274c.22.037.443.057.667.06a3.998 3.998 0 0 0 1.96-.52 3.998 3.998 0 0 0 5.374 1.333v2.52a4.003 4.003 0 0 1-4 4 4.001 4.001 0 0 1-4-4zM16 16c.45-.003.898-.061 1.333-.173v1.507a2.001 2.001 0 0 0 .8 1.594L16 21.061l-2.133-2.133a2.012 2.012 0 0 0 .8-1.594v-1.507c.436.112.883.17 1.333.173zm-8 5.333a2 2 0 0 1 2-2h2.393l2.94 2.94v7.06H12V26h-1.333v3.333H8v-8zm16 8h-2.667V26H20v3.333h-3.333v-7.06l2.94-2.94H22a2 2 0 0 1 2 2v8z"/></symbol></defs></svg>