<svg aria-hidden="true" style="position: absolute; width: 0; height: 0; overflow: hidden;" version="1.1" xmlns="http://www.w3.org/2000/svg" xmlns:xlink="http://www.w3.org/1999/xlink">
<defs>
<symbol id="icon-check" viewBox="0 0 34 32">
<path d="M31.931 0.618c-0.565-0.314-1.187-0.514-1.829-0.589s-1.293-0.021-1.915 0.157c-0.622 0.178-1.202 0.476-1.709 0.878s-0.928 0.9-1.242 1.466l-9.14 16.448-5.231-5.231c-0.454-0.47-0.997-0.845-1.598-1.103s-1.247-0.394-1.9-0.399c-0.654-0.006-1.302 0.119-1.907 0.366s-1.155 0.613-1.617 1.075c-0.462 0.462-0.828 1.012-1.075 1.617s-0.372 1.253-0.366 1.907c0.006 0.654 0.141 1.3 0.4 1.9s0.633 1.144 1.103 1.598l9.846 9.846c0.93 0.933 2.186 1.445 3.481 1.445l0.682-0.049c0.755-0.106 1.474-0.385 2.103-0.816s1.148-1.002 1.518-1.668l12.308-22.154c0.314-0.565 0.514-1.186 0.588-1.829s0.021-1.293-0.156-1.915c-0.177-0.622-0.476-1.202-0.877-1.709s-0.899-0.929-1.465-1.243z"></path>
</symbol>
<symbol id="icon-burger" viewBox="0 0 32 32">
<path stroke-linejoin="round" stroke-linecap="round" stroke-miterlimit="4" stroke-width="1.1429" d="M6.1 12c-0.149-0-0.296-0.034-0.431-0.099s-0.253-0.158-0.346-0.275c-0.093-0.116-0.16-0.252-0.194-0.397s-0.036-0.296-0.004-0.442c0.8-3.85 5.363-6.787 10.875-6.787s10.075 2.938 10.875 6.787c0.032 0.146 0.030 0.297-0.004 0.442s-0.101 0.281-0.194 0.397c-0.093 0.116-0.212 0.21-0.346 0.275s-0.282 0.098-0.431 0.099h-19.8z"></path>
<path stroke-linejoin="round" stroke-linecap="round" stroke-miterlimit="4" stroke-width="1.1429" d="M26 21v2c0 1.061-0.421 2.078-1.172 2.828s-1.768 1.172-2.828 1.172h-12c-1.061 0-2.078-0.421-2.828-1.172s-1.172-1.768-1.172-2.828v-2"></path>
<path stroke-linejoin="round" stroke-linecap="round" stroke-miterlimit="4" stroke-width="1.1429" d="M3.5 22l5-2 5 2 5-2 5 2 5-2"></path>
<path stroke-linejoin="round" stroke-linecap="round" stroke-miterlimit="4" stroke-width="1.1429" d="M3 16h26"></path>
</symbol>
<symbol id="icon-care" viewBox="0 0 32 32">
<path d="M22.698 9.284l-0.586 0.586-0.586-0.586c-0.417-0.4-0.974-0.62-1.552-0.614s-1.13 0.238-1.539 0.647-0.641 0.961-0.647 1.539c-0.006 0.578 0.214 1.135 0.614 1.552l2.974 2.815c0.097 0.097 0.212 0.174 0.338 0.226s0.262 0.079 0.399 0.079c0.137 0 0.272-0.027 0.399-0.079s0.241-0.129 0.338-0.226l2.974-2.815c0.4-0.417 0.62-0.974 0.614-1.552s-0.238-1.13-0.647-1.539-0.961-0.641-1.539-0.647c-0.578-0.006-1.135 0.214-1.552 0.614zM5.729 9.134l2.825 0.132 0.132-2.825c0.009-0.312-0.105-0.615-0.318-0.844s-0.506-0.365-0.817-0.38c-0.312-0.015-0.617 0.094-0.849 0.302s-0.374 0.499-0.395 0.81l-0.021 0.446-0.446-0.020c-0.309-0.004-0.607 0.113-0.832 0.324s-0.358 0.503-0.373 0.811c-0.014 0.309 0.092 0.611 0.296 0.843s0.49 0.376 0.798 0.401zM29.258 14.903l-0.344 0.016-0.016-0.344c-0.005-0.121-0.034-0.24-0.085-0.349s-0.123-0.208-0.212-0.29-0.194-0.145-0.307-0.186c-0.114-0.041-0.235-0.060-0.355-0.054s-0.239 0.035-0.349 0.087c-0.109 0.052-0.208 0.124-0.289 0.214s-0.144 0.195-0.185 0.309c-0.041 0.114-0.058 0.235-0.052 0.356l0.101 2.178 2.177-0.101c0.239-0.017 0.462-0.127 0.621-0.306s0.242-0.413 0.231-0.652-0.115-0.465-0.29-0.628c-0.175-0.164-0.407-0.252-0.647-0.247z"></path>
<path d="M9.594 3.654c0.345 0 0.625-0.28 0.625-0.625s-0.28-0.625-0.625-0.625c-0.345 0-0.625 0.28-0.625 0.625s0.28 0.625 0.625 0.625z"></path>
<path d="M26.468 5.529c0.345 0 0.625-0.28 0.625-0.625s-0.28-0.625-0.625-0.625c-0.345 0-0.625 0.28-0.625 0.625s0.28 0.625 0.625 0.625z"></path>
<path d="M20.218 19.279c0.345 0 0.625-0.28 0.625-0.625s-0.28-0.625-0.625-0.625c-0.345 0-0.625 0.28-0.625 0.625s0.28 0.625 0.625 0.625z"></path>
<path d="M3.344 5.515c0.345 0 0.625-0.28 0.625-0.625s-0.28-0.625-0.625-0.625-0.625 0.28-0.625 0.625c0 0.345 0.28 0.625 0.625 0.625z"></path>
<path d="M8.969 12.39c0.345 0 0.625-0.28 0.625-0.625s-0.28-0.625-0.625-0.625-0.625 0.28-0.625 0.625c0 0.345 0.28 0.625 0.625 0.625z"></path>
<path d="M11.922 10.954l4.588 4.344c0.178 0.178 0.389 0.318 0.622 0.414s0.482 0.145 0.733 0.144c0.491 0 0.981-0.186 1.355-0.558l0.662-0.627-1.923-1.821c-0.535-0.536-0.83-1.247-0.83-2.004s0.295-1.469 0.83-2.004c0.535-0.536 1.247-0.83 2.004-0.83s1.468 0.294 2.004 0.83l0.144 0.144 0.144-0.144c0.263-0.264 0.575-0.473 0.919-0.616s0.713-0.215 1.085-0.214c0.218 0 0.432 0.025 0.639 0.073-0.054-0.907-0.44-1.762-1.083-2.404-1.452-1.452-3.814-1.452-5.266 0l-0.683 0.683-0.683-0.684c-1.452-1.452-3.814-1.452-5.266 0-0.347 0.345-0.622 0.755-0.809 1.207s-0.283 0.937-0.281 1.426c0 0.995 0.387 1.93 1.091 2.633l0.005 0.006zM1.781 28.966h5v-13.125h-5v13.125zM4.594 26.154c0.166 0 0.325 0.066 0.442 0.183s0.183 0.276 0.183 0.442c0 0.166-0.066 0.325-0.183 0.442s-0.276 0.183-0.442 0.183c-0.166 0-0.325-0.066-0.442-0.183s-0.183-0.276-0.183-0.442c0-0.166 0.066-0.325 0.183-0.442s0.276-0.183 0.442-0.183zM27.75 19.717l-11.822 3.328c-0.027 0.008-0.056 0.012-0.085 0.012h-5.625c-0.083 0-0.162-0.033-0.221-0.092s-0.092-0.138-0.092-0.221 0.033-0.162 0.092-0.221c0.059-0.059 0.138-0.092 0.221-0.092h5c0.862 0 1.563-0.701 1.563-1.563s-0.701-1.563-1.563-1.563h-3.75c-0.041 0-0.082-0.008-0.12-0.024s-0.072-0.039-0.101-0.068l-1.784-1.784h-2.058v10h1.563c0.053 0 0.106 0.014 0.152 0.040l2.379 1.321c0.945 0.529 2.010 0.806 3.093 0.805s2.147-0.283 3.090-0.815l0.008-0.004 11.323-5.944c0.202-0.108 0.38-0.256 0.523-0.435s0.249-0.385 0.31-0.606c0.061-0.221 0.076-0.452 0.045-0.679s-0.108-0.445-0.226-0.642c-0.192-0.319-0.483-0.565-0.83-0.702s-0.728-0.155-1.085-0.053z"></path>
</symbol>
<symbol id="icon-cooking" viewBox="0 0 32 32">
<path d="M30.045 21.61c-0.756 0.528-1.624 0.871-2.536 1.002s-1.841 0.046-2.714-0.248c-0.079-0.028-0.164-0.037-0.247-0.025s-0.162 0.043-0.231 0.092l-2.349 1.672 0.605 0.854 2.132-1.519c0.996 0.292 2.045 0.357 3.070 0.191s1.999-0.559 2.853-1.151c0.308-0.209 0.599-0.44 0.872-0.693l-0.708-0.77c-0.234 0.217-0.483 0.416-0.747 0.595z"></path>
<path d="M24.788 13.792c-0.747 0.479-1.346 1.158-1.728 1.961s-0.532 1.697-0.434 2.581l-6.618 4.257-6.619-4.254c0.101-0.885-0.049-1.78-0.432-2.583s-0.983-1.482-1.732-1.959c-0.995-0.688-2.204-0.99-3.404-0.852-0.566 0.056-1.113 0.236-1.601 0.528s-0.907 0.689-1.225 1.162c-0.318 0.473-0.528 1.011-0.615 1.575s-0.049 1.14 0.112 1.688c0.322 1.168 1.055 2.179 2.063 2.845 0.722 0.519 1.575 0.824 2.461 0.879s1.77-0.142 2.55-0.568l5.138 3.66-4.889 3.146c-0.231 0.147-0.43 0.34-0.586 0.566s-0.264 0.481-0.32 0.75-0.057 0.546-0.004 0.816c0.053 0.269 0.16 0.525 0.314 0.753s0.35 0.421 0.579 0.57c0.229 0.15 0.485 0.252 0.754 0.301s0.544 0.043 0.811-0.016c0.267-0.060 0.519-0.172 0.741-0.331l5.906-4.202 5.906 4.205c0.223 0.164 0.476 0.28 0.745 0.343s0.548 0.071 0.82 0.023 0.532-0.15 0.763-0.301c0.232-0.151 0.431-0.347 0.585-0.577s0.261-0.488 0.313-0.761c0.052-0.272 0.049-0.552-0.009-0.823s-0.17-0.527-0.329-0.754c-0.159-0.226-0.362-0.418-0.597-0.564l-4.895-3.143 5.141-3.662c0.78 0.426 1.664 0.623 2.55 0.569s1.74-0.359 2.462-0.878c2.146-1.453 2.846-4.195 1.56-6.112s-4.085-2.292-6.235-0.839zM9.497 30.414c-0.223 0.151-0.496 0.208-0.761 0.159s-0.5-0.199-0.655-0.419c-0.075-0.111-0.128-0.237-0.154-0.369s-0.025-0.268 0.002-0.4c0.027-0.132 0.081-0.257 0.157-0.368s0.174-0.205 0.288-0.277l5.246-3.376 1.482 1.055-5.605 3.994zM24.084 29.386c0.041 0.199 0.021 0.405-0.056 0.593s-0.21 0.347-0.379 0.458c-0.169 0.111-0.368 0.168-0.57 0.165s-0.399-0.069-0.564-0.186l-14.638-10.424c-0.089-0.064-0.196-0.097-0.306-0.097s-0.216 0.036-0.304 0.101c-0.619 0.405-1.346 0.61-2.084 0.589s-1.452-0.27-2.046-0.711c-0.799-0.526-1.38-1.324-1.637-2.247-0.123-0.403-0.154-0.829-0.092-1.246s0.217-0.815 0.452-1.164 0.545-0.642 0.908-0.855c0.362-0.214 0.768-0.343 1.186-0.38 0.949-0.107 1.905 0.135 2.69 0.681 0.629 0.388 1.125 0.959 1.421 1.638s0.378 1.432 0.236 2.159c-0.027 0.107-0.020 0.219 0.021 0.321s0.112 0.189 0.204 0.248l15.116 9.713c0.113 0.072 0.211 0.167 0.287 0.278s0.129 0.236 0.156 0.368zM28.876 19.872c-0.594 0.441-1.308 0.689-2.046 0.71s-1.465-0.184-2.084-0.589c-0.088-0.065-0.195-0.1-0.304-0.101s-0.216 0.033-0.306 0.097l-5.776 4.114-1.385-0.89 6.512-4.191c0.092-0.059 0.163-0.146 0.203-0.248s0.048-0.214 0.021-0.32c-0.14-0.727-0.056-1.479 0.24-2.157s0.791-1.25 1.419-1.639c1.671-1.13 3.818-0.881 4.784 0.554s0.391 3.531-1.28 4.661z"></path>
<path d="M6.050 1.293l-0.578-0.873c-1.261 0.838-2.207 2.076-2.687 3.515s-0.467 2.999 0.037 4.43l0.984-0.35c-0.426-1.211-0.437-2.531-0.030-3.749s1.207-2.265 2.275-2.974h-0.001z"></path>
<path d="M4.913 9.903c-0.251-0.286-0.474-0.596-0.665-0.926l-0.904 0.524c0.225 0.39 0.489 0.757 0.786 1.095l0.783-0.693z"></path>
<path d="M21.74 18.248l1.486-7.456c1.208-0.106 2.329-0.676 3.128-1.592s1.214-2.106 1.158-3.322-0.578-2.363-1.457-3.201c-0.879-0.838-2.048-1.303-3.261-1.297-1.056-0.004-2.081 0.354-2.907 1.014-0.43-0.635-1.009-1.155-1.685-1.514s-1.43-0.547-2.195-0.547c-0.765 0-1.519 0.188-2.195 0.547s-1.255 0.879-1.685 1.514c-0.826-0.66-1.851-1.017-2.907-1.014-1.209-0-2.371 0.467-3.245 1.305s-1.393 1.981-1.449 3.193c-0.056 1.212 0.356 2.398 1.15 3.313s1.908 1.487 3.112 1.599l1.486 7.458 1.023-0.205-0.292-1.471h10.003l-0.292 1.467 1.023 0.21zM19.22 15.524l0.437-3.069-1.034-0.149-0.458 3.217h-1.636v-5.762h-1.044v5.762h-1.636l-0.458-3.217-1.034 0.149 0.437 3.069h-1.998l-1.065-5.343c-0.024-0.118-0.088-0.225-0.181-0.301s-0.21-0.118-0.33-0.118c-0.969 0-1.899-0.386-2.584-1.074s-1.070-1.62-1.070-2.593 0.385-1.905 1.070-2.593c0.685-0.688 1.615-1.074 2.584-1.074 0.498-0.001 0.99 0.1 1.447 0.299s0.868 0.489 1.207 0.854c0.058 0.062 0.13 0.108 0.21 0.136s0.165 0.035 0.249 0.022 0.163-0.046 0.231-0.096c0.068-0.050 0.123-0.116 0.16-0.193 0.298-0.62 0.765-1.143 1.346-1.508s1.253-0.56 1.939-0.56c0.686 0 1.358 0.194 1.939 0.56s1.047 0.889 1.346 1.508c0.037 0.076 0.092 0.142 0.16 0.193s0.147 0.083 0.231 0.096 0.169 0.005 0.249-0.022c0.080-0.027 0.152-0.074 0.21-0.136 0.34-0.365 0.751-0.655 1.207-0.854s0.949-0.3 1.447-0.299c0.969 0 1.899 0.386 2.584 1.074s1.070 1.62 1.070 2.593c0 0.972-0.385 1.905-1.070 2.593s-1.615 1.074-2.584 1.074c-0.12 0-0.237 0.042-0.33 0.118s-0.157 0.183-0.181 0.301l-1.065 5.343h-1.998z"></path>
</symbol>
<symbol id="icon-cutlery" viewBox="0 0 32 32">
<path d="M23.787 12.793l1.88-0.12c0.003-0 0.007-0 0.010-0.001 1.34-0.114 2.543-0.82 3.3-1.937l1.486-2.193c1.294-1.909 1.795-4.215 1.411-6.493-0.075-0.447-0.303-0.86-0.64-1.16s-0.772-0.479-1.222-0.5c-2.295-0.11-4.511 0.667-6.24 2.187l-1.987 1.747c-1.012 0.89-1.565 2.175-1.517 3.527 0 0.003 0 0.007 0 0.010l0.107 1.891c0.042 0.737-0.227 1.465-0.736 1.995l-15.522 16.036c-0.416 0.436-0.63 1.034-0.604 1.684 0.029 0.715 0.355 1.418 0.873 1.88 0.468 0.417 1.111 0.655 1.754 0.655 0.069 0 0.138-0.003 0.206-0.008 0.645-0.052 1.209-0.338 1.592-0.808l13.967-17.416c0.463-0.573 1.149-0.929 1.882-0.975zM21.159 13.161l-13.965 17.414c-0.213 0.262-0.542 0.424-0.924 0.454-0.455 0.037-0.921-0.116-1.248-0.407s-0.533-0.739-0.551-1.197c-0.016-0.385 0.104-0.732 0.335-0.974l15.521-16.035c0.696-0.724 1.062-1.716 1.005-2.721l-0.107-1.886c-0.036-1.058 0.397-2.064 1.19-2.761l1.987-1.747c1.542-1.355 3.518-2.048 5.564-1.95 0.233 0.011 0.457 0.103 0.632 0.259s0.292 0.369 0.331 0.6c0.342 2.031-0.105 4.086-1.258 5.788l-1.486 2.193c-0.593 0.875-1.534 1.428-2.583 1.519l-1.875 0.119c-0.999 0.064-1.934 0.549-2.567 1.331z"></path>
<path d="M31.114 27.66l-10.407-9.533c-0.196-0.179-0.499-0.165-0.678 0.032s-0.164 0.502 0.032 0.682l10.405 9.531c0.248 0.23 0.388 0.569 0.395 0.955 0.009 0.459-0.17 0.918-0.479 1.228s-0.764 0.491-1.221 0.481c-0.383-0.008-0.72-0.149-0.947-0.395l-9.274-10.239c-0.179-0.197-0.482-0.211-0.678-0.032s-0.21 0.485-0.031 0.682l9.276 10.242c0.408 0.443 0.988 0.695 1.635 0.708 0.017 0 0.034 0 0.050 0 0.695 0 1.39-0.284 1.868-0.764 0.49-0.493 0.774-1.214 0.76-1.929-0.013-0.65-0.262-1.234-0.706-1.647z"></path>
<path d="M5.788 12.702c0.794 0.736 1.825 1.155 2.904 1.181 0.003 0 0.007 0 0.010 0l1.884 0.006c0.734 0.002 1.44 0.316 1.936 0.859l0.83 0.916c0.095 0.105 0.224 0.158 0.355 0.158 0.115 0 0.231-0.041 0.323-0.126 0.196-0.179 0.21-0.485 0.032-0.682l-0.831-0.917c-0.677-0.742-1.639-1.169-2.64-1.173l-1.879-0.006c-0.835-0.021-1.633-0.343-2.251-0.906l-5.459-6.526c-0.056-0.067-0.051-0.163 0.010-0.225 0.042-0.042 0.091-0.049 0.117-0.049s0.075 0.006 0.117 0.049l4.969 4.998c0.491 0.494 1.291 0.494 1.782-0l1.621-1.63c0 0 0 0 0-0l0-0 0.584-0.587c0.491-0.494 0.491-1.298 0-1.792l-4.969-4.997c-0.064-0.065-0.064-0.171 0-0.235 0.061-0.062 0.157-0.066 0.224-0.010l6.49 5.49c0.56 0.622 0.88 1.424 0.901 2.264l0.006 1.889c0.003 1.007 0.428 1.974 1.167 2.656l0.889 0.814c0.196 0.179 0.499 0.165 0.678-0.032s0.164-0.502-0.032-0.682l-0.888-0.813c-0.541-0.499-0.853-1.209-0.855-1.948l-0.006-1.894c0-0.003 0-0.007-0-0.010-0.026-1.085-0.443-2.122-1.174-2.921-0.014-0.015-0.028-0.029-0.044-0.042l-6.514-5.51c-0.45-0.381-1.104-0.353-1.52 0.066-0.439 0.441-0.439 1.159 0 1.6l4.969 4.998c0.117 0.118 0.117 0.31 0 0.427l-0.245 0.246-5.538-5.569c-0.187-0.189-0.491-0.189-0.678 0s-0.187 0.494 0 0.682l5.538 5.57-0.359 0.361-5.538-5.569c-0.187-0.188-0.491-0.188-0.678 0s-0.188 0.494 0 0.682l5.538 5.57-0.245 0.246c-0.117 0.118-0.308 0.118-0.425 0l-4.969-4.997c-0.212-0.214-0.495-0.331-0.795-0.331s-0.583 0.118-0.795 0.331c-0.416 0.418-0.444 1.075-0.065 1.528l5.48 6.55c0.013 0.016 0.027 0.030 0.042 0.044z"></path>
</symbol>
<symbol id="icon-delivery" viewBox="0 0 32 32">
<path d="M26.001 1c-0.668-0.001-0.668 1.001 0 1h0.5v1.035c-1.999 0.252-3.498 1.951-3.5 3.965 0 2.209 1.791 4 4 4s4-1.791 4-4c-0.002-2.014-1.502-3.712-3.5-3.964v-1.036h0.5c0.668 0.001 0.668-1.001 0-1h-2zM17.999 4.5c-0.668-0.001-0.668 1.001 0 1h3.5c0.668 0.001 0.668-1.001 0-1h-3.5zM26.623 5.493c-0.771 0.206-1.247 0.967-1.11 1.742 0.139 0.786 0.854 1.327 1.639 1.259 0.795-0.070 1.398-0.736 1.398-1.524 0.015-0.661 0.979-0.671 1.001 0 0 1.315-1.008 2.407-2.311 2.521s-2.48-0.784-2.713-2.081c-0.231-1.287 0.575-2.545 1.838-2.883 0.043-0.013 0.088-0.019 0.133-0.019 0.578 0.017 0.692 0.814 0.125 0.986zM28.657 5.752l-1.258 1.554c-0.419 0.52-1.199-0.112-0.777-0.63l1.258-1.553c0.105-0.13 0.232-0.188 0.357-0.194 0.376-0.017 0.736 0.434 0.42 0.823zM18.999 6.5c-0.668-0.001-0.668 1.001 0 1h2.5c0.668 0.001 0.668-1.001 0-1h-2.5zM20.499 8.5c-0.668-0.001-0.668 1.001 0 1h1c0.668 0.001 0.668-1.001 0-1h-1zM7.024 16.504v-6.004h-4.023c-0.822 0-1.503 0.677-1.503 1.499v14.001c-0.276 0.001-0.498 0.224-0.498 0.5v1.001c0 0.277 0.223 0.5 0.5 0.5l1.497-0.001c0-2.199 1.809-4.003 4.005-4.003s4.001 1.805 4.001 4.003h10.497c0-2.199 1.809-4.003 4.005-4.003s4.001 1.805 4.001 4.003l0.994 0.001c0.277 0 0.5-0.223 0.5-0.5v-1.001c0-0.277-0.223-0.5-0.5-0.5h-0.5v-2.999h-1c-0.667 0-0.661-0.91 0-1h1v-1c0-0.178-0.070-0.257-0.128-0.353-0.874-1.456-4.316-7.188-4.316-7.188-0.253-0.518-0.558-0.461-1.056-0.461h-4.501v13.001h-1v-14.001c0-0.822-0.676-1.499-1.498-1.499h-3.498v6.002c0.001 0.692-0.731 1.189-1.373 0.931l-2.13-0.853-2.103 0.847c-0.641 0.259-1.371-0.232-1.375-0.923zM13.004 10.5h-4.979v5.998l2.288-0.922c0.12-0.048 0.253-0.048 0.373 0l2.316 0.926 0.002-6.002zM22.42 14.502h1.937c0.338 0.002 0.631 0.174 0.797 0.457l2.813 4.646c0.368 0.63-0.092 1.395-0.801 1.394h-4.739c-0.505 0.002-0.924-0.406-0.926-0.923v-4.651c0-0.507 0.413-0.923 0.92-0.923zM22.5 15.499v4.499h4.536l-2.724-4.499h-1.813zM12.5 21.5c0.25 0 0.501 0.167 0.5 0.501v1.999c0.001 0.668-1.001 0.668-1 0v-1.999c-0.001-0.334 0.25-0.501 0.5-0.501zM14.5 21.5c0.25 0 0.501 0.167 0.5 0.501v1.999c0.001 0.668-1.001 0.668-1 0v-1.999c-0.001-0.334 0.25-0.501 0.5-0.501zM16.5 21.5c0.25 0 0.501 0.167 0.5 0.501v1.999c0.001 0.668-1.001 0.668-1 0v-1.999c-0.001-0.334 0.25-0.501 0.5-0.501zM21.501 22.001h0.5c0.668-0.001 0.668 1.001 0 1h-0.5c-0.668 0.001-0.668-1.001 0-1zM7.002 24.999c-1.652 0-3.004 1.347-3.004 3s1.352 3.001 3.004 3.001c1.652 0 3-1.348 3-3.001s-1.348-3-3-3zM25.504 24.999c-1.652 0-3.004 1.347-3.004 3s1.351 3.001 3.004 3.001c1.653 0 3-1.348 3-3.001s-1.348-3-3-3zM7.002 26.5c0.823 0 1.498 0.675 1.498 1.498s-0.675 1.503-1.498 1.503c-0.823 0-1.503-0.679-1.503-1.503s0.68-1.498 1.503-1.498zM25.505 26.5c0.823 0 1.498 0.675 1.498 1.498s-0.675 1.503-1.498 1.503c-0.823 0-1.503-0.679-1.503-1.503s0.68-1.498 1.503-1.498zM7.002 27.5c-0.279 0-0.502 0.219-0.502 0.498s0.223 0.503 0.502 0.503c0.279 0 0.498-0.224 0.498-0.503s-0.219-0.498-0.498-0.498zM25.505 27.5c-0.279 0-0.502 0.219-0.502 0.498s0.223 0.503 0.502 0.503c0.279 0 0.498-0.224 0.498-0.503s-0.219-0.498-0.498-0.498z"></path>
</symbol>
<symbol id="icon-hat" viewBox="0 0 32 32">
<path d="M17.886 25.328c-4.965 0.892-8.785 2.764-8.528 4.184s4.485 1.847 9.455 0.955c4.965-0.892 8.785-2.764 8.528-4.184s-4.49-1.847-9.455-0.955z"></path>
<path d="M22.895 1.324c-9.794-1.552-19.103 4.451-19.103 4.451s-6.735 5.469-0.979 9.959c3.515 2.739 4.897 4.659 5.445 5.741 2.279-1.479 7.045-3.913 13.261-3.467 0.267 0.019 0.47 0.252 0.451 0.519s-0.257 0.465-0.519 0.451c-6.070-0.436-10.764 2.070-12.848 3.442 0.010 0.063 0.010 0.092 0.010 0.092l0.553 5.217c1.707-1.702 5.799-2.865 8.548-3.355 1.75-0.315 3.486-0.485 5.018-0.485 1.508 0 3.229 0.16 4.359 0.756l-0.761-5.076c0 0 1.261-4.732 3.302-7.263s1.838-4.655 1.838-4.655 1.227-4.776-8.572-6.327zM8.679 19.292c-0.218-0.368-0.446-0.727-0.703-1.076-0.496-0.69-1.023-1.356-1.581-1.998-0.548-0.485-1.091-0.979-1.571-1.532-0.504-0.548-0.95-1.144-1.367-1.76-0.402-0.625-0.766-1.275-1.052-1.964-0.286-0.684-0.524-1.392-0.616-2.124 0.276 0.679 0.621 1.319 0.989 1.939 0.373 0.616 0.776 1.207 1.202 1.784 0.223 0.281 0.436 0.567 0.674 0.834 0.223 0.281 0.461 0.548 0.703 0.81 0.238 0.267 0.499 0.514 0.742 0.776l0.776 0.742 0.039 0.039c0.548 0.703 1.042 1.43 1.469 2.206 0.213 0.388 0.402 0.79 0.553 1.207 0.15 0.412 0.271 0.858 0.242 1.304-0.082-0.436-0.291-0.815-0.499-1.188zM10.73 19.573c0.034-0.155 0-0.31-0.034-0.456-0.034-0.15-0.082-0.296-0.136-0.441-0.107-0.286-0.238-0.567-0.373-0.844-0.271-0.553-0.591-1.086-0.912-1.615-0.645-1.057-1.358-2.070-2.007-3.166-0.635-1.096-1.193-2.24-1.629-3.428-0.431-1.188-0.781-2.419-0.863-3.685 0.378 1.198 0.868 2.342 1.387 3.467 0.533 1.12 1.101 2.216 1.736 3.278 0.616 1.062 1.324 2.119 1.881 3.258 0.281 0.567 0.543 1.149 0.742 1.755 0.097 0.305 0.189 0.611 0.242 0.926 0.039 0.31 0.092 0.65-0.034 0.95zM13.387 18.444c-0.082-0.621-0.281-1.212-0.47-1.804-0.194-0.591-0.412-1.173-0.63-1.755-0.441-1.159-0.936-2.303-1.358-3.496-0.412-1.188-0.776-2.395-1.067-3.617-0.296-1.222-0.543-2.458-0.679-3.709 0.427 1.183 0.824 2.371 1.222 3.554 0.402 1.178 0.79 2.366 1.212 3.535 0.402 1.168 0.873 2.337 1.212 3.559 0.175 0.606 0.325 1.222 0.436 1.847 0.092 0.616 0.199 1.251 0.121 1.886zM16.325 17.164c-0.233-1.261-0.383-2.526-0.499-3.796s-0.189-2.545-0.213-3.825c-0.015-1.304 0.121-2.545 0.049-3.792-0.044-0.621-0.097-1.241-0.262-1.833-0.078-0.296-0.184-0.587-0.335-0.853-0.155-0.257-0.354-0.519-0.655-0.63 0.325 0.039 0.606 0.267 0.819 0.514 0.213 0.257 0.373 0.553 0.509 0.853 0.257 0.611 0.398 1.256 0.49 1.901 0.087 0.645 0.121 1.295 0.121 1.939-0.005 0.655-0.024 1.261-0.005 1.901l0.053 3.806c0.005 1.261-0.005 2.536-0.073 3.816zM21.319 9.716l-0.296 0.955-0.272 0.936c-0.184 0.625-0.339 1.261-0.499 1.891-0.286 1.27-0.611 2.545-0.543 3.864-0.204-0.635-0.223-1.319-0.213-1.988 0.024-0.669 0.097-1.333 0.199-1.988 0.097-0.659 0.242-1.309 0.393-1.959 0.078-0.325 0.165-0.64 0.257-0.97l0.272-0.936c0.354-1.246 0.606-2.511 0.65-3.792 0-0.635-0.029-1.275-0.189-1.896-0.16-0.611-0.412-1.227-0.882-1.692 0.577 0.344 0.955 0.96 1.222 1.581 0.257 0.64 0.373 1.319 0.422 1.998 0.073 1.358-0.17 2.705-0.519 3.995zM23.278 15.336c-0.256 0.664-0.479 1.341-0.669 2.027 0.102-1.43 0.461-2.841 0.921-4.199 0.456-1.367 1.042-2.681 1.697-3.961 0.344-0.64 0.674-1.251 0.95-1.876 0.121-0.32 0.276-0.63 0.354-0.96 0.044-0.165 0.102-0.325 0.136-0.49l0.087-0.499c0.078-0.664 0.034-1.348-0.238-1.968-0.257-0.625-0.761-1.149-1.377-1.508 0.344 0.102 0.669 0.281 0.955 0.514 0.291 0.223 0.538 0.514 0.737 0.829 0.388 0.65 0.529 1.43 0.485 2.182l-0.053 0.562c-0.024 0.184-0.082 0.364-0.121 0.543-0.068 0.369-0.218 0.708-0.335 1.057-0.276 0.684-0.621 1.333-0.941 1.949-0.655 1.251-1.256 2.531-1.808 3.83-0.278 0.649-0.538 1.305-0.781 1.969zM29.265 11.248c-3.389 5.217-3.389 7.19-3.389 7.19s-0.039-3.156 2.41-6.992c0 0-2.696 1.43-3.51 6.448 0 0-0.592-3.316 3.937-8.373 1.256-1.401 1.668-3.413 0.912-5.135-0.048-0.107-0.097-0.218-0.155-0.33 0 0 3.181 1.973-0.204 7.19z"></path>
</symbol>
<symbol id="icon-flag" viewBox="0 0 32 32">
<path d="M23.196 10.93l3.638-5.466c0.116-0.153 0.187-0.336 0.204-0.528s-0.020-0.385-0.107-0.556c-0.087-0.171-0.221-0.314-0.386-0.411s-0.353-0.145-0.543-0.138h-17.036v-2.028h-2.004v26.366h-2.004v2.028h6.013v-2.028h-2.004v-10.141h17.036c0.18-0.001 0.357-0.051 0.512-0.145s0.281-0.229 0.366-0.39c0.085-0.161 0.126-0.342 0.118-0.525s-0.065-0.359-0.164-0.512l-3.638-5.527zM8.966 16v-10.141h15.152l-2.956 4.452c-0.11 0.167-0.168 0.363-0.168 0.563s0.059 0.396 0.168 0.563l3.006 4.563h-15.202z"></path>
</symbol>
<symbol id="icon-healthcare" viewBox="0 0 32 32">
<path d="M31.063 13.65c-0.337-0.338-0.881-0.338-1.212 0l-8.712 8.713-2.438-2.438c-0.337-0.337-0.881-0.337-1.213 0-0.337 0.337-0.337 0.881 0 1.213l3.044 3.044c0.169 0.169 0.388 0.25 0.606 0.25s0.438-0.081 0.606-0.25l4.519-4.519c0.156 0.512 0.238 1.050 0.225 1.6-0.056 2.869-2.444 5.15-5.313 5.1-2.869-0.056-5.156-2.444-5.1-5.313 0.056-2.838 2.381-5.1 5.206-5.1 0.038 0 0.069 0 0.106 0 0.881 0.019 1.744 0.256 2.5 0.7 0.413 0.238 0.938 0.1 1.175-0.313s0.1-0.938-0.313-1.175c-0.669-0.388-1.4-0.656-2.156-0.8 0.481-1.388 0.725-2.775 0.725-4.144 0-3.369-2.406-6.063-5.6-6.263-2.219-0.138-4.4 1.006-5.663 2.812-1.262-1.806-3.45-2.95-5.662-2.812-2.019 0.125-3.75 1.231-4.763 3.031-0.231 0.412-0.081 0.937 0.331 1.169s0.937 0.081 1.169-0.331c0.719-1.288 1.95-2.075 3.375-2.163 2.062-0.138 4.1 1.269 4.737 3.25 0 0.006 0.006 0.012 0.012 0.019 0.025 0.075 0.063 0.144 0.106 0.206 0.006 0.006 0.012 0.019 0.019 0.025 0.044 0.063 0.1 0.119 0.169 0.162 0.013 0.013 0.025 0.019 0.044 0.031 0.063 0.044 0.131 0.081 0.206 0.106 0 0 0 0 0.006 0 0.075 0.025 0.156 0.038 0.238 0.038 0.012 0 0.019 0.006 0.025 0.006s0.019-0.006 0.025-0.006c0.081 0 0.156-0.013 0.231-0.038h0.006c0.019-0.006 0.037-0.019 0.050-0.025 0.031-0.012 0.063-0.025 0.088-0.037s0.044-0.031 0.069-0.044c0.025-0.019 0.050-0.031 0.069-0.050s0.037-0.037 0.056-0.056c0.019-0.019 0.044-0.037 0.056-0.063 0.019-0.019 0.031-0.044 0.050-0.069s0.031-0.044 0.044-0.069c0.013-0.025 0.025-0.056 0.038-0.088 0.006-0.019 0.019-0.038 0.025-0.056 0.637-1.981 2.675-3.375 4.737-3.25 2.275 0.144 3.988 2.1 3.988 4.55 0 1.325-0.269 2.675-0.8 4.031-3.531 0.244-6.375 3.156-6.444 6.762-0.006 0.325 0.019 0.65 0.056 0.969-0.719 0.519-1.456 0.988-2.344 1.488-5.988-3.388-9.55-8.313-9.55-13.25 0-0.475-0.381-0.856-0.856-0.856s-0.856 0.381-0.856 0.856c0 5.681 4.044 11.275 10.825 14.975 0 0 0 0 0.006 0 0.006 0.006 0.013 0.006 0.019 0.012 0.038 0.019 0.081 0.031 0.119 0.044 0.025 0.006 0.050 0.025 0.075 0.031 0.069 0.019 0.144 0.031 0.219 0.031s0.144-0.013 0.219-0.031c0.025-0.006 0.050-0.019 0.075-0.031 0.037-0.012 0.081-0.025 0.119-0.044 0.912-0.5 1.675-0.956 2.394-1.45 1.012 2.481 3.425 4.262 6.275 4.319 0.050 0 0.094 0 0.144 0 3.75 0 6.844-3.012 6.919-6.781 0.019-1.038-0.187-2.031-0.606-2.962l3.469-3.469c0.319-0.319 0.319-0.863-0.013-1.2z"></path>
</symbol>
<symbol id="icon-manager" viewBox="0 0 32 32">
<path d="M22 18h-2.667c-0.177 0-0.346-0.070-0.471-0.195s-0.195-0.295-0.195-0.471v-2.053c0.81-0.468 1.483-1.14 1.951-1.95s0.715-1.728 0.716-2.664v-4c0-1.415-0.562-2.771-1.562-3.771s-2.357-1.562-3.771-1.562c-1.415 0-2.771 0.562-3.771 1.562s-1.562 2.357-1.562 3.771v4c0.001 0.935 0.248 1.854 0.716 2.664s1.141 1.482 1.951 1.95v2.053c0 0.177-0.070 0.346-0.195 0.471s-0.295 0.195-0.471 0.195h-2.667c-0.884 0-1.732 0.351-2.357 0.976s-0.976 1.473-0.976 2.357v8.667c0 0.177 0.070 0.346 0.195 0.471s0.295 0.195 0.471 0.195h17.333c0.177 0 0.346-0.070 0.471-0.195s0.195-0.295 0.195-0.471v-8.667c0-0.884-0.351-1.732-0.976-2.357s-1.473-0.976-2.357-0.976zM20 6.42c-0.249 0.286-0.557 0.515-0.901 0.672s-0.719 0.24-1.099 0.241c-0.707 0-1.386-0.281-1.886-0.781s-0.781-1.178-0.781-1.886c0.001-0.379 0.083-0.754 0.241-1.099s0.387-0.652 0.672-0.901c0.976 0.059 1.897 0.473 2.589 1.164s1.106 1.613 1.164 2.589zM14.353 3.027c-0.232 0.516-0.353 1.075-0.353 1.64 0.001 0.305 0.037 0.609 0.107 0.907-0.607 0.376-1.335 0.503-2.033 0.353 0.119-0.631 0.389-1.224 0.786-1.729s0.909-0.907 1.494-1.171zM12 10.667v-3.393c0.22 0.037 0.443 0.057 0.667 0.060 0.687-0.002 1.362-0.181 1.96-0.52 0.551 0.872 1.417 1.498 2.419 1.746s2.060 0.1 2.955-0.413v2.52c0 1.061-0.421 2.078-1.172 2.828s-1.768 1.172-2.828 1.172-2.078-0.421-2.828-1.172c-0.75-0.75-1.172-1.768-1.172-2.828zM16 16c0.45-0.003 0.898-0.061 1.333-0.173v1.507c0.001 0.309 0.074 0.614 0.213 0.891s0.34 0.517 0.587 0.703l-2.133 2.133-2.133-2.133c0.248-0.186 0.449-0.426 0.587-0.703s0.212-0.581 0.213-0.891v-1.507c0.436 0.112 0.883 0.17 1.333 0.173zM8 21.333c0-0.53 0.211-1.039 0.586-1.414s0.884-0.586 1.414-0.586h2.393l2.94 2.94v7.060h-3.333v-3.333h-1.333v3.333h-2.667v-8zM24 29.333h-2.667v-3.333h-1.333v3.333h-3.333v-7.060l2.94-2.94h2.393c0.53 0 1.039 0.211 1.414 0.586s0.586 0.884 0.586 1.414v8z"></path>
</symbol>
</defs>
</svg>
