<svg width="295" height="68" viewBox="0 0 295 68" fill="none" xmlns="http://www.w3.org/2000/svg">
<g clip-path="url(#clip0_171_179)">
<path fill-rule="evenodd" clip-rule="evenodd" d="M40.219 20.8078C41.0208 19.0586 41.1442 16.9345 40.6507 14.4981C42.3161 16.5597 42.3161 19.0586 40.219 20.8078ZM39.3555 22.7445V30.8034L37.0733 30.4286V22.6195C32.0156 21.8074 33.3726 16.4347 34.6062 13.0612C36.2715 9.3753 39.8489 9.68766 41.4526 13.4985C43.1796 16.8095 43.6114 21.3076 39.3555 22.7445Z" fill="#05581C"/>
<path fill-rule="evenodd" clip-rule="evenodd" d="M19.8289 30.8034C19.946 25.4034 20.0046 22.6723 20.0046 22.6723C18.2473 21.9275 17.2516 20.8102 17.3101 19.1343C17.4273 14.1067 17.4859 11.6239 17.4859 11.6239C17.9545 11.6239 18.2473 11.6239 18.2473 11.6239C18.3059 16.3412 18.3645 18.6999 18.3645 18.6999C18.4231 20.6861 19.4774 21.3689 19.4774 19.1964C19.6531 14.2929 19.7703 11.6239 19.7703 11.6239C20.2974 11.6239 20.5317 11.6239 20.5317 11.6239C20.4732 16.8998 20.4732 19.5688 20.4732 19.5688C20.5317 21.1826 21.5861 21.1826 21.6447 19.5688C21.6447 19.5688 21.6447 16.8998 21.5861 11.6239C21.5861 11.6239 21.8204 11.6239 22.3476 11.6239C22.3476 11.6239 22.4647 14.2929 22.6404 19.1964C22.6404 21.3689 23.6948 20.6861 23.7534 18.6999C23.7534 18.6999 23.8119 16.3412 23.8705 11.6239C23.8705 11.6239 24.1048 11.6239 24.632 11.6239C24.632 11.6239 24.6905 14.1067 24.8077 19.1343C24.8077 20.8102 23.8705 21.9275 22.1133 22.6723L22.289 30.431L19.8289 30.8034Z" fill="#05581C"/>
<path fill-rule="evenodd" clip-rule="evenodd" d="M30.5976 3.57101C31.0478 5.45049 31.2166 6.39023 31.2166 6.39023C32.961 5.32519 32.5108 1.81683 30.5976 0C28.6281 1.81683 28.178 5.32519 29.9786 6.39023C29.9224 6.45288 30.1474 5.51314 30.5976 3.57101Z" fill="#3F8A28"/>
<path fill-rule="evenodd" clip-rule="evenodd" d="M47.3965 11.339C46.5206 13.0208 46.1118 13.8929 46.1118 13.8929C48.1557 14.3912 49.966 11.4636 49.5573 8.72279C46.9294 8.59821 44.4183 10.903 45.119 12.9585C45.1774 13.0208 45.9366 12.4602 47.3965 11.339Z" fill="#3F8A28"/>
<path fill-rule="evenodd" clip-rule="evenodd" d="M12.8808 9.01419C13.8663 10.7583 14.3261 11.5681 14.3261 11.5681C12.0267 12.0664 9.99013 9.13877 10.45 6.398C13.4064 6.27342 16.2314 8.57816 15.443 10.6337C15.3773 10.6337 14.5232 10.0731 12.8808 9.01419Z" fill="#3F8A28"/>
<path fill-rule="evenodd" clip-rule="evenodd" d="M45.7912 25.1764C44.6638 26.8861 44.1297 27.7067 44.1297 27.7067C46.0879 28.6641 48.4022 25.8603 48.4615 22.7829C45.8506 22.1675 42.9429 24.0823 43.299 26.4758C43.2396 26.4758 44.0704 26.0655 45.7912 25.1764Z" fill="#3F8A28"/>
<path fill-rule="evenodd" clip-rule="evenodd" d="M10.6294 24.2576C12.4476 25.5171 13.2867 26.1468 13.2867 26.1468C11.3986 27.7562 7.97203 25.8669 6.92308 22.8581C9.65035 21.3187 13.4965 22.1584 13.8462 24.6774C13.8462 24.6774 12.7972 24.5375 10.6294 24.2576Z" fill="#3F8A28"/>
<path fill-rule="evenodd" clip-rule="evenodd" d="M30 30.8034L7.51579 34.5333L0 48.8205L22.4842 45.0906L30 30.8034Z" fill="#3F8A28"/>
<path fill-rule="evenodd" clip-rule="evenodd" d="M30 30.8034L52.4842 34.5333L60 48.8205L37.5158 45.0906L30 30.8034Z" fill="#3F8A28"/>
<path fill-rule="evenodd" clip-rule="evenodd" d="M8.41392 48.3088V60.112L28.8508 64.671L29.2235 32.9459L29.9689 31.3846L30.7144 32.9459L31.0871 64.671L51.5861 60.112V48.3088H52.6421L53.0769 61.3611L29.9689 67.4188L6.92308 61.3611L7.35791 48.3088H8.41392Z" fill="#05581C"/>
<path fill-rule="evenodd" clip-rule="evenodd" d="M15 61.0902L27.8205 63.3504L28.2692 46.4957C27.2436 55.6011 22.8205 60.3799 15 61.0902Z" fill="#3F8A28"/>
<path fill-rule="evenodd" clip-rule="evenodd" d="M45.5769 60.9079L32.1172 63.3504L31.7308 48.8205C32.3748 57.1502 37.4624 61.2837 45.5769 60.9079Z" fill="#3F8A28"/>
</g>
<path d="M212.606 31.7517C213.157 31.2675 213.788 30.864 214.418 30.6219C215.048 30.3798 215.836 30.2991 216.545 30.2991C217.097 30.2991 217.569 30.3798 218.042 30.5412C218.515 30.7026 218.83 30.9447 219.145 31.2675C219.46 31.5903 219.697 31.9938 219.854 32.3973C220.012 32.8815 220.091 33.3657 220.091 33.8499V39.6602H218.83C218.594 39.6602 218.357 39.6602 218.279 39.5795C218.121 39.4988 218.042 39.3374 217.963 39.0953L217.806 38.6111C217.569 38.7725 217.333 39.0146 217.176 39.0953C216.939 39.2567 216.782 39.3374 216.545 39.4988C216.309 39.5795 216.072 39.6602 215.836 39.7409C215.6 39.8216 215.285 39.8216 214.969 39.8216C214.576 39.8216 214.182 39.7409 213.866 39.6602C213.551 39.5795 213.236 39.4181 213 39.176C212.763 38.9339 212.606 38.6918 212.448 38.369C212.291 38.0462 212.291 37.6428 212.291 37.2393C212.291 36.9165 212.369 36.5937 212.527 36.1902C212.685 35.8674 213 35.5446 213.394 35.2218C213.788 34.899 214.339 34.7376 215.048 34.4955C215.757 34.3341 216.624 34.1727 217.648 34.1727V33.9306C217.648 33.3657 217.569 32.9622 217.333 32.7201C217.097 32.478 216.782 32.3973 216.388 32.3973C216.072 32.3973 215.836 32.3973 215.6 32.478C215.363 32.5587 215.206 32.6394 215.048 32.7201C214.891 32.8008 214.733 32.8815 214.576 32.9622C214.418 33.0429 214.26 33.0429 214.024 33.0429C213.866 33.0429 213.709 32.9622 213.551 32.8815C213.394 32.8008 213.315 32.6394 213.236 32.5587L212.606 31.7517ZM217.491 35.9481C216.939 35.9481 216.466 36.0288 216.151 36.1095C215.836 36.1902 215.521 36.2709 215.285 36.3516C215.048 36.4323 214.969 36.5937 214.891 36.7551C214.812 36.9165 214.733 37.0779 214.733 37.2393C214.733 37.5621 214.812 37.8042 214.969 37.8849C215.127 38.0462 215.363 38.0462 215.679 38.0462C215.994 38.0462 216.309 37.9655 216.624 37.8849C216.86 37.7235 217.176 37.5621 217.412 37.2393V35.9481H217.491ZM208.981 32.6394C208.903 32.7201 208.824 32.8008 208.745 32.8815C208.666 32.9622 208.588 32.9622 208.43 32.9622C208.272 32.9622 208.194 32.9622 208.036 32.8815C207.957 32.8008 207.8 32.7201 207.642 32.6394C207.485 32.5587 207.327 32.478 207.169 32.3973C207.012 32.3166 206.775 32.3166 206.46 32.3166C206.145 32.3166 205.83 32.3973 205.594 32.478C205.357 32.6394 205.121 32.8008 204.963 33.0429C204.806 33.285 204.727 33.5271 204.648 33.9306C204.569 34.2534 204.569 34.6569 204.569 35.0604C204.569 35.9481 204.727 36.6744 205.042 37.0779C205.357 37.5621 205.83 37.8042 206.46 37.8042C206.775 37.8042 207.012 37.7235 207.248 37.6428C207.406 37.5621 207.563 37.4814 207.721 37.4007C207.878 37.32 207.957 37.2393 208.115 37.1586C208.194 37.0779 208.351 36.9972 208.509 36.9972C208.745 36.9972 208.903 37.0779 208.981 37.2393L209.769 38.2076C209.454 38.5304 209.218 38.7725 208.903 39.0146C208.588 39.2567 208.272 39.4181 207.957 39.4988C207.642 39.5795 207.327 39.6602 207.012 39.7409C206.697 39.8216 206.381 39.8216 206.066 39.8216C205.515 39.8216 204.963 39.7409 204.491 39.4988C204.018 39.2567 203.545 38.9339 203.151 38.5304C202.757 38.1269 202.442 37.6428 202.206 36.9972C201.969 36.4323 201.891 35.706 201.891 34.9797C201.891 34.3341 201.969 33.6885 202.206 33.1236C202.363 32.5587 202.678 32.0745 203.072 31.5903C203.466 31.1868 203.939 30.864 204.491 30.6219C205.042 30.3798 205.672 30.2184 206.46 30.2184C207.169 30.2184 207.8 30.2991 208.351 30.5412C208.903 30.7833 209.375 31.1061 209.769 31.5903L208.981 32.6394ZM198.66 27.8782C198.66 28.1203 198.581 28.2817 198.503 28.5238C198.424 28.6852 198.266 28.9273 198.109 29.008C197.951 29.1694 197.794 29.2501 197.557 29.3308C197.4 29.4922 197.163 29.4922 197.006 29.4922C196.769 29.4922 196.612 29.4115 196.375 29.3308C196.218 29.2501 195.981 29.0887 195.903 29.008C195.745 28.8466 195.666 28.6852 195.587 28.5238C195.509 28.3624 195.43 28.1203 195.43 27.8782C195.43 27.6361 195.509 27.4747 195.587 27.2326C195.666 27.0712 195.824 26.8291 195.903 26.7484C196.06 26.587 196.218 26.5063 196.375 26.4256C196.533 26.3449 196.769 26.2642 197.006 26.2642C197.242 26.2642 197.478 26.3449 197.636 26.4256C197.872 26.5063 198.03 26.587 198.187 26.7484C198.345 26.9098 198.424 27.0712 198.581 27.2326C198.581 27.4747 198.66 27.6361 198.66 27.8782ZM198.345 30.4605V39.7409H195.666V30.4605H198.345ZM189.442 31.9131C189.757 31.4289 190.072 31.0254 190.387 30.7026C190.781 30.3798 191.175 30.2991 191.648 30.2991C192.042 30.2991 192.357 30.3798 192.672 30.6219L192.515 32.6394C192.515 32.8008 192.436 32.8815 192.357 32.8815C192.278 32.9622 192.2 32.9622 192.042 32.9622C191.963 32.9622 191.963 32.9622 191.884 32.9622C191.806 32.9622 191.727 32.9622 191.648 32.9622C191.569 32.9622 191.49 32.9622 191.412 32.9622C191.333 32.9622 191.254 32.9622 191.175 32.9622C190.781 32.9622 190.466 33.0429 190.23 33.285C189.993 33.5271 189.757 33.7692 189.599 34.1727V39.8216H186.921V30.4605H188.496C188.654 30.4605 188.733 30.4605 188.812 30.4605C188.89 30.4605 188.969 30.5412 189.048 30.5412C189.127 30.6219 189.127 30.6219 189.206 30.7833C189.206 30.864 189.284 30.9447 189.284 31.1061L189.442 31.9131ZM177.624 35.6253C177.702 36.4323 177.939 36.9972 178.333 37.32C178.727 37.6428 179.199 37.8849 179.751 37.8849C180.066 37.8849 180.302 37.8849 180.539 37.8042C180.775 37.7235 180.933 37.6428 181.169 37.5621C181.327 37.4814 181.484 37.4007 181.642 37.32C181.799 37.2393 181.957 37.2393 182.115 37.2393C182.351 37.2393 182.508 37.32 182.587 37.4814L183.375 38.4497C183.06 38.7725 182.824 39.0146 182.509 39.2567C182.193 39.4988 181.878 39.6602 181.484 39.7409C181.169 39.8216 180.775 39.9023 180.46 39.983C180.145 40.0637 179.83 40.0637 179.515 40.0637C178.884 40.0637 178.254 39.983 177.702 39.7409C177.151 39.4988 176.678 39.176 176.205 38.7725C175.811 38.369 175.496 37.8042 175.181 37.2393C174.945 36.5937 174.787 35.8674 174.787 35.0604C174.787 34.4148 174.866 33.8499 175.102 33.285C175.339 32.7201 175.575 32.2359 175.969 31.8324C176.363 31.4289 176.836 31.1061 177.387 30.864C177.939 30.6219 178.569 30.4605 179.278 30.4605C179.908 30.4605 180.46 30.5412 180.933 30.7833C181.405 30.9447 181.878 31.2675 182.193 31.5903C182.587 31.9938 182.824 32.3973 183.06 32.9622C183.296 33.5271 183.375 34.092 183.375 34.7376C183.375 34.9797 183.375 35.1411 183.375 35.2218C183.375 35.3832 183.296 35.4639 183.296 35.5446C183.218 35.6253 183.218 35.706 183.139 35.706C183.06 35.706 182.981 35.7867 182.824 35.7867H177.624V35.6253ZM181.09 34.0113C181.09 33.7692 181.09 33.6078 181.012 33.3657C180.933 33.1236 180.854 32.9622 180.775 32.8008C180.618 32.6394 180.46 32.478 180.302 32.3973C180.066 32.3166 179.83 32.2359 179.593 32.2359C179.042 32.2359 178.648 32.3973 178.411 32.7201C178.096 33.0429 177.939 33.4464 177.86 34.0113H181.09ZM158.478 39.7409V30.4605H160.133C160.448 30.4605 160.684 30.6219 160.763 30.9447L160.92 31.4289C161.078 31.2675 161.236 31.1061 161.393 30.9447C161.551 30.7833 161.708 30.7026 161.945 30.6219C162.102 30.5412 162.339 30.4605 162.575 30.3798C162.811 30.2991 163.048 30.2991 163.284 30.2991C163.836 30.2991 164.308 30.4605 164.623 30.7026C165.017 31.0254 165.254 31.3482 165.411 31.8324C165.569 31.5096 165.727 31.2675 165.963 31.1061C166.199 30.864 166.436 30.7026 166.672 30.6219C166.908 30.4605 167.223 30.3798 167.46 30.3798C167.854 30.2991 168.169 30.2991 168.405 30.2991C168.957 30.2991 169.351 30.3798 169.824 30.5412C170.217 30.7026 170.533 30.9447 170.848 31.2675C171.084 31.5903 171.321 31.9131 171.478 32.3973C171.636 32.8008 171.714 33.3657 171.714 33.9306V39.8216H169.036V33.8499C169.036 32.8815 168.642 32.3973 167.854 32.3973C167.46 32.3973 167.145 32.5587 166.908 32.8008C166.672 33.0429 166.514 33.4464 166.514 33.8499V39.7409H163.836V33.8499C163.836 33.285 163.757 32.9622 163.52 32.7201C163.284 32.478 163.048 32.3973 162.654 32.3973C162.417 32.3973 162.181 32.478 161.945 32.5587C161.708 32.6394 161.551 32.8008 161.314 33.0429V39.7409H158.478ZM155.799 39.7409H153.514C153.278 39.7409 153.042 39.6602 152.884 39.5795C152.726 39.4181 152.569 39.3374 152.49 39.0953L151.702 36.8358H146.817L146.029 39.0953C145.951 39.2567 145.872 39.4181 145.714 39.5795C145.557 39.7409 145.32 39.8216 145.084 39.8216H142.799L147.763 26.7484H150.757L155.799 39.7409ZM151.072 34.7376L149.89 31.1868C149.811 30.9447 149.732 30.7026 149.575 30.3798C149.496 30.057 149.338 29.7342 149.26 29.4115C149.181 29.8149 149.102 30.1377 148.945 30.4605C148.866 30.7833 148.787 31.0254 148.629 31.2675L147.448 34.8183H151.072V34.7376ZM134.447 32.478C134.369 32.5587 134.29 32.6394 134.211 32.7201C134.132 32.8008 134.053 32.8008 133.896 32.8008C133.738 32.8008 133.66 32.8008 133.502 32.7201C133.344 32.6394 133.266 32.6394 133.108 32.5587C132.95 32.478 132.793 32.3973 132.635 32.3973C132.478 32.3166 132.241 32.3166 132.005 32.3166C131.69 32.3166 131.375 32.3973 131.217 32.478C131.059 32.6394 130.902 32.8008 130.902 33.0429C130.902 33.2043 130.981 33.3657 131.059 33.4464C131.217 33.5271 131.375 33.6885 131.611 33.7692C131.847 33.8499 132.005 33.9306 132.32 34.0113C132.556 34.092 132.793 34.1727 133.108 34.2534C133.344 34.3341 133.66 34.4955 133.896 34.5762C134.132 34.7376 134.369 34.899 134.605 35.0604C134.841 35.2218 134.999 35.4639 135.078 35.7867C135.235 36.0288 135.235 36.3516 135.235 36.7551C135.235 37.2393 135.156 37.6428 134.999 38.0462C134.841 38.4497 134.605 38.7725 134.29 39.0146C133.975 39.2567 133.581 39.4988 133.108 39.6602C132.635 39.8216 132.084 39.9023 131.453 39.9023C131.138 39.9023 130.823 39.9023 130.508 39.8216C130.193 39.7409 129.878 39.6602 129.641 39.5795C129.326 39.4988 129.09 39.3374 128.853 39.176C128.617 39.0146 128.381 38.8532 128.223 38.6918L128.853 37.6428C128.932 37.5621 129.011 37.4007 129.09 37.32C129.169 37.2393 129.326 37.2393 129.484 37.2393C129.641 37.2393 129.799 37.2393 129.878 37.32C130.035 37.4007 130.114 37.4814 130.272 37.5621C130.429 37.6428 130.587 37.7235 130.823 37.8042C130.981 37.8849 131.296 37.8849 131.532 37.8849C131.769 37.8849 131.926 37.8849 132.084 37.8042C132.241 37.7235 132.32 37.7235 132.399 37.6428C132.478 37.5621 132.556 37.4814 132.556 37.4007C132.635 37.32 132.635 37.2393 132.635 37.0779C132.635 36.9165 132.556 36.7551 132.478 36.5937C132.32 36.513 132.163 36.3516 132.005 36.2709C131.769 36.1902 131.611 36.1095 131.296 36.0288C131.059 35.9481 130.744 35.8674 130.508 35.7867C130.272 35.706 129.956 35.5446 129.72 35.4639C129.484 35.3025 129.247 35.1411 129.011 34.9797C128.775 34.7376 128.617 34.4955 128.538 34.2534C128.381 33.9306 128.381 33.6078 128.381 33.2043C128.381 32.8008 128.459 32.3973 128.617 32.0745C128.775 31.7517 129.011 31.4289 129.247 31.1061C129.562 30.864 129.956 30.6219 130.35 30.4605C130.823 30.3798 131.375 30.2991 131.926 30.2991C132.241 30.2991 132.556 30.2991 132.872 30.3798C133.187 30.4605 133.502 30.5412 133.738 30.6219C133.975 30.7026 134.29 30.864 134.447 31.0254C134.684 31.1868 134.841 31.3482 134.999 31.5096L134.447 32.478ZM124.835 26.3449V39.7409H122.156V26.3449H124.835ZM110.811 31.7517C111.362 31.2675 111.993 30.864 112.623 30.6219C113.332 30.3798 114.041 30.2991 114.829 30.2991C115.381 30.2991 115.853 30.3798 116.326 30.5412C116.799 30.7026 117.114 30.9447 117.429 31.2675C117.744 31.5903 117.981 31.9938 118.138 32.3973C118.296 32.8815 118.374 33.3657 118.374 33.8499V39.6602H117.114C116.878 39.6602 116.641 39.6602 116.562 39.5795C116.405 39.4988 116.326 39.3374 116.247 39.0953L116.09 38.6111C115.853 38.7725 115.617 39.0146 115.459 39.0953C115.223 39.2567 115.065 39.3374 114.829 39.4988C114.593 39.5795 114.356 39.6602 114.12 39.7409C113.884 39.8216 113.568 39.8216 113.253 39.8216C112.859 39.8216 112.465 39.7409 112.15 39.6602C111.835 39.5795 111.52 39.4181 111.284 39.176C111.047 38.9339 110.89 38.6918 110.732 38.369C110.574 38.0462 110.574 37.6428 110.574 37.2393C110.574 36.9165 110.653 36.5937 110.811 36.1902C110.968 35.8674 111.284 35.5446 111.677 35.2218C112.071 34.899 112.623 34.7376 113.332 34.4955C114.041 34.3341 114.908 34.1727 115.932 34.1727V33.9306C115.932 33.3657 115.853 32.9622 115.617 32.7201C115.381 32.478 115.065 32.3973 114.671 32.3973C114.356 32.3973 114.12 32.3973 113.884 32.478C113.49 32.5587 113.253 32.6394 113.096 32.7201C112.938 32.8008 112.781 32.8815 112.623 32.9622C112.465 33.0429 112.308 33.0429 112.071 33.0429C111.914 33.0429 111.756 32.9622 111.599 32.8815C111.441 32.8008 111.362 32.6394 111.284 32.5587L110.811 31.7517ZM115.696 35.9481C115.144 35.9481 114.671 36.0288 114.356 36.1095C114.041 36.1902 113.726 36.2709 113.49 36.3516C113.253 36.4323 113.174 36.5937 113.096 36.7551C113.017 36.9165 112.938 37.0779 112.938 37.2393C112.938 37.5621 113.017 37.8042 113.174 37.8849C113.332 38.0462 113.568 38.0462 113.884 38.0462C114.199 38.0462 114.514 37.9655 114.829 37.8849C115.065 37.7235 115.381 37.5621 115.617 37.2393V35.9481H115.696ZM101.829 35.6253C101.908 36.4323 102.144 36.9972 102.538 37.32C102.932 37.6428 103.405 37.8849 103.956 37.8849C104.271 37.8849 104.508 37.8849 104.744 37.8042C104.98 37.7235 105.138 37.6428 105.374 37.5621C105.532 37.4814 105.69 37.4007 105.847 37.32C106.005 37.2393 106.162 37.2393 106.32 37.2393C106.556 37.2393 106.714 37.32 106.793 37.4814L107.58 38.4497C107.265 38.7725 107.029 39.0146 106.714 39.2567C106.399 39.4988 106.083 39.6602 105.69 39.7409C105.374 39.8216 104.98 39.9023 104.665 39.983C104.35 40.0637 104.035 40.0637 103.72 40.0637C103.089 40.0637 102.459 39.983 101.908 39.7409C101.356 39.4988 100.883 39.176 100.411 38.7725C100.017 38.369 99.7016 37.8042 99.3864 37.2393C99.1501 36.5937 98.9925 35.8674 98.9925 35.0604C98.9925 34.4148 99.0713 33.8499 99.3076 33.285C99.544 32.7201 99.7804 32.2359 100.174 31.8324C100.568 31.4289 101.041 31.1061 101.593 30.864C102.302 30.4605 102.853 30.2991 103.562 30.2991C104.193 30.2991 104.744 30.3798 105.217 30.6219C105.69 30.7833 106.162 31.1061 106.477 31.4289C106.871 31.8324 107.108 32.2359 107.344 32.8008C107.58 33.3657 107.659 33.9306 107.659 34.5762C107.659 34.8183 107.659 34.9797 107.659 35.0604C107.659 35.2218 107.58 35.3025 107.58 35.3832C107.502 35.4639 107.502 35.5446 107.423 35.5446C107.344 35.5446 107.265 35.6253 107.108 35.6253H101.829ZM105.217 34.0113C105.217 33.7692 105.217 33.6078 105.138 33.3657C105.059 33.1236 104.98 32.9622 104.902 32.8008C104.744 32.6394 104.586 32.478 104.429 32.3973C104.193 32.3166 103.956 32.2359 103.72 32.2359C103.168 32.2359 102.774 32.3973 102.538 32.7201C102.223 33.0429 102.065 33.4464 101.986 34.0113H105.217ZM95.6834 26.6677V39.7409H93.0833V32.2359C93.0833 32.0745 93.0833 31.9131 93.0833 31.671C93.0833 31.4289 93.0833 31.2675 93.1621 31.0254L89.7742 37.7235C89.6954 37.9655 89.5378 38.1269 89.3803 38.2076C89.1439 38.369 88.9075 38.369 88.6712 38.369H88.2772C88.0408 38.369 87.8833 38.2883 87.6469 38.2076C87.4893 38.1269 87.3318 37.9655 87.253 37.7235L83.8651 31.0254C83.8651 31.2675 83.865 31.4289 83.9438 31.671C83.9438 31.9131 83.9438 32.0745 83.9438 32.2359V39.7409H81.3438V26.6677H83.5499C83.7075 26.6677 83.7863 26.6677 83.8651 26.6677C83.9438 26.6677 84.0226 26.6677 84.1014 26.7484C84.1802 26.7484 84.259 26.8291 84.3378 26.9098C84.4166 26.9905 84.4954 27.0712 84.4954 27.1519L87.8045 33.7692C87.8833 34.0113 88.0408 34.2534 88.1196 34.4955C88.1984 34.7376 88.356 34.9797 88.4348 35.2218C88.5136 34.9797 88.6712 34.7376 88.7499 34.4148C88.8287 34.1727 88.9863 33.9306 89.0651 33.6885L92.3742 27.0712C92.453 26.9905 92.5318 26.8291 92.5318 26.8291C92.6106 26.7484 92.6894 26.7484 92.7682 26.6677C92.847 26.6677 92.9257 26.587 93.0045 26.587C93.0833 26.587 93.2409 26.587 93.3197 26.587H95.6834V26.6677Z" fill="#05581C"/>
<path d="M87.644 53.104H83.066V55.162H87.266V57.066H83.066V61H81.064V51.2H87.644V53.104ZM93.2471 53.132C93.4291 53.132 93.5691 53.146 93.6951 53.16V55.218C93.5411 55.204 93.4291 55.19 93.2051 55.19C91.9311 55.19 90.8391 55.75 90.8391 57.57V61H88.8371V53.3H90.8391V54.644C91.3151 53.636 92.1551 53.132 93.2471 53.132ZM98.4836 53.132C101.032 53.132 102.614 55.134 102.418 57.668H96.5096C96.6356 58.9 97.4756 59.516 98.5116 59.516C99.2816 59.516 99.9536 59.166 100.22 58.55H102.292C101.718 60.37 100.178 61.168 98.5256 61.168C96.1176 61.168 94.4656 59.46 94.4656 57.164C94.4656 54.854 96.1316 53.132 98.4836 53.132ZM98.4696 54.784C97.4896 54.784 96.8596 55.372 96.6076 56.198H100.29C100.066 55.358 99.4356 54.784 98.4696 54.784ZM107.616 53.132C110.164 53.132 111.746 55.134 111.55 57.668H105.642C105.768 58.9 106.608 59.516 107.644 59.516C108.414 59.516 109.086 59.166 109.352 58.55H111.424C110.85 60.37 109.31 61.168 107.658 61.168C105.25 61.168 103.598 59.46 103.598 57.164C103.598 54.854 105.264 53.132 107.616 53.132ZM107.602 54.784C106.622 54.784 105.992 55.372 105.74 56.198H109.422C109.198 55.358 108.568 54.784 107.602 54.784ZM124.629 51.2H126.939V61H124.937V53.972L122.207 58.102H122.025L119.309 53.972V61H117.307V51.2H119.603L122.123 54.966L124.629 51.2ZM132.622 53.132C135.17 53.132 136.752 55.134 136.556 57.668H130.648C130.774 58.9 131.614 59.516 132.65 59.516C133.42 59.516 134.092 59.166 134.358 58.55H136.43C135.856 60.37 134.316 61.168 132.664 61.168C130.256 61.168 128.604 59.46 128.604 57.164C128.604 54.854 130.27 53.132 132.622 53.132ZM132.608 54.784C131.628 54.784 130.998 55.372 130.746 56.198H134.428C134.204 55.358 133.574 54.784 132.608 54.784ZM143.673 53.3H145.675L145.661 61H143.659V59.964C143.127 60.692 142.329 61.168 141.251 61.168C139.235 61.168 137.737 59.516 137.737 57.15C137.737 54.77 139.263 53.132 141.237 53.132C142.329 53.132 143.141 53.636 143.673 54.378V53.3ZM141.699 59.264C142.819 59.264 143.673 58.424 143.673 57.15C143.673 55.89 142.819 55.036 141.699 55.036C140.579 55.036 139.753 55.89 139.753 57.15C139.753 58.424 140.593 59.264 141.699 59.264ZM147.285 61V50.22H149.287V61H147.285ZM154.436 61.168C152.378 61.168 150.88 60.16 150.6 58.466H152.63C152.784 59.082 153.246 59.502 154.492 59.502C155.374 59.502 155.794 59.292 155.794 58.872C155.794 58.354 155.192 58.312 154.03 58.032C151.846 57.514 150.95 57.024 150.95 55.694C150.95 54.07 152.294 53.132 154.324 53.132C156.466 53.132 157.516 54.168 157.782 55.596H155.752C155.598 55.106 155.178 54.812 154.254 54.812C153.456 54.812 152.966 55.036 152.966 55.456C152.966 55.82 153.316 55.89 154.436 56.142C156.634 56.646 157.866 57.066 157.866 58.606C157.866 60.328 156.34 61.168 154.436 61.168ZM170.208 53.104H165.63V55.162H169.83V57.066H165.63V61H163.628V51.2H170.208V53.104ZM175.087 53.132C177.313 53.132 179.105 54.826 179.105 57.15C179.105 59.474 177.341 61.168 175.087 61.168C172.847 61.168 171.083 59.46 171.083 57.15C171.083 54.826 172.875 53.132 175.087 53.132ZM175.087 55.036C173.967 55.036 173.099 55.89 173.099 57.15C173.099 58.424 173.967 59.264 175.087 59.264C176.207 59.264 177.075 58.424 177.075 57.15C177.075 55.89 176.207 55.036 175.087 55.036ZM184.917 53.132C185.099 53.132 185.239 53.146 185.365 53.16V55.218C185.211 55.204 185.099 55.19 184.875 55.19C183.601 55.19 182.509 55.75 182.509 57.57V61H180.507V53.3H182.509V54.644C182.985 53.636 183.825 53.132 184.917 53.132ZM197.498 53.104H192.92V55.078H197.12V56.982H192.92V59.096H197.498V61H190.918V51.2H197.498V53.104ZM198.841 61V50.22H200.843V61H198.841ZM203.445 49.744C204.173 49.744 204.691 50.234 204.691 50.92C204.691 51.606 204.173 52.11 203.445 52.11C202.745 52.11 202.199 51.606 202.199 50.92C202.199 50.234 202.745 49.744 203.445 49.744ZM202.437 61V53.3H204.439V61H202.437ZM211.8 53.3H213.802V60.902C213.802 63.184 212.318 64.668 209.994 64.668C208.132 64.668 206.382 63.73 206.088 61.714H208.16C208.384 62.582 209.112 62.89 209.938 62.89C211.156 62.89 211.8 62.26 211.8 60.958V59.852C211.254 60.58 210.456 61.056 209.378 61.056C207.362 61.056 205.864 59.404 205.864 57.094C205.864 54.77 207.39 53.132 209.378 53.132C210.442 53.132 211.268 53.622 211.8 54.364V53.3ZM209.826 59.152C210.946 59.152 211.8 58.312 211.8 57.094C211.8 55.89 210.946 55.036 209.826 55.036C208.706 55.036 207.88 55.89 207.88 57.094C207.88 58.298 208.72 59.152 209.826 59.152ZM216.406 49.744C217.134 49.744 217.652 50.234 217.652 50.92C217.652 51.606 217.134 52.11 216.406 52.11C215.706 52.11 215.16 51.606 215.16 50.92C215.16 50.234 215.706 49.744 216.406 49.744ZM215.398 61V53.3H217.4V61H215.398ZM223.445 53.132C225.419 53.132 226.959 54.77 226.959 57.15C226.959 59.516 225.447 61.168 223.445 61.168C222.353 61.168 221.555 60.692 221.009 59.964V61H219.007V50.22H221.009V54.378C221.541 53.636 222.367 53.132 223.445 53.132ZM222.983 59.264C224.089 59.264 224.929 58.424 224.929 57.15C224.929 55.89 224.103 55.036 222.983 55.036C221.863 55.036 221.009 55.89 221.009 57.15C221.009 58.424 221.863 59.264 222.983 59.264ZM228.373 61V50.22H230.375V61H228.373ZM235.804 53.132C238.352 53.132 239.934 55.134 239.738 57.668H233.83C233.956 58.9 234.796 59.516 235.832 59.516C236.602 59.516 237.274 59.166 237.54 58.55H239.612C239.038 60.37 237.498 61.168 235.846 61.168C233.438 61.168 231.786 59.46 231.786 57.164C231.786 54.854 233.452 53.132 235.804 53.132ZM235.79 54.784C234.81 54.784 234.18 55.372 233.928 56.198H237.61C237.386 55.358 236.756 54.784 235.79 54.784ZM252.634 61L251.808 58.69H247.846L247.006 61H244.892L248.56 51.2H251.094L254.762 61H252.634ZM248.532 56.786H251.108L249.82 53.23L248.532 56.786ZM261.268 50.22H263.27V61H261.268V59.964C260.736 60.692 259.924 61.168 258.846 61.168C256.844 61.168 255.332 59.516 255.332 57.15C255.332 54.77 256.858 53.132 258.832 53.132C259.924 53.132 260.736 53.636 261.268 54.378V50.22ZM259.294 59.264C260.414 59.264 261.268 58.424 261.268 57.15C261.268 55.89 260.414 55.036 259.294 55.036C258.174 55.036 257.348 55.89 257.348 57.15C257.348 58.424 258.188 59.264 259.294 59.264ZM269.916 53.3H271.918V61H269.916V59.936C269.356 60.72 268.6 61.168 267.536 61.168C265.842 61.168 264.792 60.006 264.792 58.13V53.3H266.794V57.696C266.794 58.704 267.172 59.264 268.208 59.264C269.314 59.264 269.916 58.606 269.916 57.346V53.3ZM273.517 61V50.22H275.519V61H273.517ZM282.838 58.928L283.174 60.552C282.754 60.832 281.802 61.168 280.878 61.168C279.338 61.168 277.994 60.244 277.994 58.032V55.19H276.622V53.3H277.994V51.634L279.996 51.2V53.3H282.852V55.19H279.996V57.92C279.996 58.83 280.43 59.306 281.228 59.306C281.676 59.306 282.208 59.152 282.838 58.928ZM287.819 61.168C285.761 61.168 284.263 60.16 283.983 58.466H286.013C286.167 59.082 286.629 59.502 287.875 59.502C288.757 59.502 289.177 59.292 289.177 58.872C289.177 58.354 288.575 58.312 287.413 58.032C285.229 57.514 284.333 57.024 284.333 55.694C284.333 54.07 285.677 53.132 287.707 53.132C289.849 53.132 290.899 54.168 291.165 55.596H289.135C288.981 55.106 288.561 54.812 287.637 54.812C286.839 54.812 286.349 55.036 286.349 55.456C286.349 55.82 286.699 55.89 287.819 56.142C290.017 56.646 291.249 57.066 291.249 58.606C291.249 60.328 289.723 61.168 287.819 61.168Z" fill="#05581C"/>
<defs>
<clipPath id="clip0_171_179">
<rect width="60" height="68" fill="white"/>
</clipPath>
</defs>
</svg>
