<svg width="36" height="36" viewBox="0 0 36 36" fill="none" xmlns="http://www.w3.org/2000/svg">
<path d="M31.5 10.5V4.5M31.5 4.5H25.5M31.5 4.5L22.5 13.5M27.75 31.5C14.9094 31.5 4.5 21.0906 4.5 8.25C4.5 7.67067 4.52119 7.09629 4.56283 6.52759C4.61062 5.87493 4.63452 5.5486 4.80555 5.25154C4.94721 5.00551 5.19825 4.77219 5.45397 4.64888C5.76271 4.5 6.12282 4.5 6.84301 4.5H11.069C11.6746 4.5 11.9774 4.5 12.237 4.59968C12.4663 4.68773 12.6705 4.83074 12.8316 5.01615C13.014 5.22604 13.1175 5.51064 13.3245 6.07981L15.0736 10.8901C15.3144 11.5523 15.4349 11.8834 15.4145 12.1975C15.3965 12.4746 15.3018 12.7411 15.1413 12.9676C14.9593 13.2244 14.6572 13.4057 14.0529 13.7682L12 15C13.8029 18.9734 17.0252 22.1999 21 24L22.2318 21.9471C22.5944 21.3428 22.7756 21.0406 23.0324 20.8587C23.2589 20.6982 23.5254 20.6035 23.8025 20.5855C24.1166 20.5651 24.4477 20.6856 25.11 20.9264L29.9202 22.6755C30.4893 22.8825 30.774 22.986 30.9838 23.1684C31.1692 23.3295 31.3124 23.5337 31.4003 23.763C31.5 24.0225 31.5 24.3254 31.5 24.9311V29.157C31.5 29.8771 31.5 30.2373 31.351 30.546C31.2277 30.8018 30.9945 31.0529 30.7485 31.1945C30.4514 31.3655 30.1251 31.3893 29.4725 31.4371C28.9037 31.4788 28.3293 31.5 27.75 31.5Z" stroke="#05581C" stroke-width="2.5" stroke-linecap="round" stroke-linejoin="round"/>
</svg>
