<svg width="14" height="13" viewBox="0 0 14 13" fill="none" xmlns="http://www.w3.org/2000/svg">
<path d="M12.972 0.251002C12.7424 0.123254 12.4899 0.0420148 12.2289 0.0119294C11.9679 -0.0181561 11.7035 0.00350228 11.4509 0.0756663C11.1983 0.14783 10.9624 0.269084 10.7567 0.432494C10.5509 0.595904 10.3795 0.798264 10.252 1.028L6.53899 7.71L4.41399 5.585C4.2295 5.39398 4.00881 5.24162 3.7648 5.1368C3.5208 5.03198 3.25836 4.97681 2.9928 4.9745C2.72724 4.97219 2.46388 5.0228 2.21809 5.12336C1.97229 5.22392 1.74899 5.37243 1.5612 5.56021C1.37342 5.748 1.22491 5.9713 1.12435 6.21709C1.02379 6.46289 0.973186 6.72625 0.975494 6.9918C0.977801 7.25736 1.03297 7.5198 1.13779 7.76381C1.24261 8.00782 1.39497 8.22851 1.58599 8.413L5.58599 12.413C5.96399 12.792 6.47399 13 6.99999 13L7.27699 12.98C7.58354 12.9371 7.87596 12.8237 8.13121 12.6486C8.38647 12.4735 8.5976 12.2415 8.74799 11.971L13.748 2.971C13.8756 2.74145 13.9568 2.48901 13.9869 2.22808C14.017 1.96715 13.9954 1.70286 13.9234 1.45028C13.8513 1.1977 13.7302 0.96179 13.567 0.756017C13.4037 0.550244 13.2016 0.37864 12.972 0.251002Z" fill="white"/>
</svg>
