<svg width="25" height="25" viewBox="0 0 25 25" fill="none" xmlns="http://www.w3.org/2000/svg">
<path d="M23.5076 20.6554C24.3098 21.4576 24.3098 22.7054 23.5076 23.5076C23.1065 23.9087 22.6163 24.087 22.0815 24.087C21.5467 24.087 21.0565 23.9087 20.6554 23.5076L12.5 15.3522L4.34455 23.5076C3.94346 23.9087 3.45325 24.087 2.91846 24.087C2.38368 24.087 1.89346 23.9087 1.49238 23.5076C0.690204 22.7054 0.690204 21.4576 1.49238 20.6554L9.64781 12.5L1.49238 4.34457C0.690204 3.54239 0.690204 2.29457 1.49238 1.49239C2.29455 0.690219 3.54238 0.690219 4.34455 1.49239L12.5 9.64783L20.6554 1.49239C21.4576 0.690219 22.7054 0.690219 23.5076 1.49239C24.3098 2.29457 24.3098 3.54239 23.5076 4.34457L15.3522 12.5L23.5076 20.6554Z" fill="#AEB1C4"/>
</svg>
